<svg width="100" height="100" viewBox="0 0 100 100" fill="none" xmlns="http://www.w3.org/2000/svg" transform="rotate(-25)">
<path d="M42.5391 95.3203C42.1027 95.3159 41.6804 95.1647 41.3403 94.8912C41.0002 94.6177 40.762 94.2378 40.664 93.8125L40.4297 92.8047C39.2734 87.8281 36.3672 83.3984 32.0312 79.9766C31.1015 79.2422 30.3047 78.3672 29.6562 77.375C26.1875 72.0234 24.2734 67.3203 22.4297 62.7734C20.6875 58.4688 19.039 54.4062 16.2344 50.2109C15.6094 49.2734 15.1562 46.6953 15.8437 44.6328C16.2812 43.3047 17.1094 42.4141 18.2969 42C19.25 41.6641 20.1172 41.5 20.9453 41.5C23.8906 41.5 26.4687 43.6953 29.3125 48.625C32.3515 53.8828 32.539 55.2656 32.5469 55.3203C32.5703 55.9531 33.0859 56.4375 33.7187 56.4375H33.7344C34.375 56.4297 34.8828 55.8906 34.8906 55.25L34.9844 10.6641C34.9844 9.03906 35.9687 4.42188 40.3359 4.42188C45.4766 4.42188 47.2031 8.89844 47.2031 10.9375L47.1719 26.2344C47.1719 26.6016 47.3437 26.9531 47.6406 27.1797C47.8437 27.3359 48.0937 27.4141 48.3437 27.4141C48.4531 27.4141 48.5703 27.3984 48.6797 27.3672C49.7891 27.0312 50.8594 26.8672 51.8516 26.8672C54.8203 26.8672 56.7422 28.3906 57.8281 29.6719C58.2548 30.1696 58.7846 30.5686 59.3809 30.8411C59.9772 31.1136 60.6256 31.2531 61.2812 31.25C61.7656 31.25 62.2422 31.1719 62.6953 31.0234C63.2656 30.8359 63.875 30.7422 64.5078 30.7422C65.5156 30.7422 66.6015 30.9844 67.7109 31.4609C69.1875 32.0938 70.2812 33.2109 70.9453 34.0469C71.6484 34.9297 73.0937 36.4141 74.8515 36.4141C75.1172 36.4141 75.375 36.3828 75.625 36.3125C76 36.2109 76.4453 36.1562 76.914 36.1562C79.0469 36.1562 81.8437 37.2187 83.2656 40.2031C84.5547 42.8906 84.5234 57.7656 84.5078 62.6484C84.4765 75.5078 75.6172 93.8125 75.5312 94C75.5 94.0625 75.4765 94.125 75.4531 94.1953C75.337 94.6036 75.0914 94.9631 74.7532 95.2195C74.415 95.476 74.0026 95.6156 73.5781 95.6172L42.5391 95.3203Z" fill="url(#paint0_linear_494_856)"/>
<path d="M40.3281 5.57812C45.0078 5.57812 46.0234 9.85937 46.0234 10.9141L45.9922 26.2188C45.9922 26.9609 46.3437 27.6563 46.9375 28.1016C47.2302 28.3196 47.5701 28.4658 47.9298 28.5282C48.2894 28.5906 48.6587 28.5676 49.0078 28.4609C50.0078 28.1563 50.9609 28.0078 51.8437 28.0078C53.8672 28.0078 55.5781 28.8125 56.9297 30.3984C57.4662 31.0253 58.1325 31.5282 58.8825 31.8722C59.6325 32.2161 60.4483 32.393 61.2734 32.3906C61.8828 32.3906 62.4766 32.2969 63.0547 32.1094C63.5078 31.9609 63.9922 31.8828 64.5078 31.8828C65.3594 31.8828 66.2812 32.0938 67.25 32.5078C68.5 33.0391 69.4453 34.0156 70.0234 34.7422C70.8594 35.7891 72.5937 37.5469 74.8437 37.5469C75.2109 37.5469 75.5781 37.5 75.9297 37.3984C76.1953 37.3281 76.5469 37.2813 76.9141 37.2813C78.6953 37.2813 81.0156 38.1719 82.2109 40.6641C82.7422 41.7812 83.375 46.4922 83.3437 62.6016C83.3203 75.1797 74.5703 93.2578 74.4844 93.4375C74.4219 93.5625 74.375 93.6953 74.3359 93.8281C74.2422 94.1641 73.9297 94.3984 73.5703 94.3984L42.5625 94.125C42.3881 94.1234 42.2194 94.0632 42.0833 93.9541C41.9473 93.845 41.8519 93.6933 41.8125 93.5234L41.5781 92.5156C40.3594 87.2812 37.3125 82.6172 32.7578 79.0391C31.9297 78.3828 31.2187 77.6016 30.6406 76.7187C27.2266 71.4609 25.3437 66.8125 23.5156 62.3125C21.75 57.9531 20.0781 53.8359 17.2109 49.5391C16.8594 49.0078 16.3437 46.8203 16.9609 44.9766C17.3984 43.6719 18.1562 43.2656 18.6953 43.0781C19.5234 42.7813 20.2578 42.6406 20.9531 42.6406C22.6172 42.6406 24.9609 43.3828 28.3047 49.1797C30.8594 53.6094 31.3203 55.1562 31.3828 55.4297C31.4766 56.6016 32.4297 57.5312 33.625 57.5859H33.7187C34.9375 57.5859 35.9609 56.6484 36.0547 55.4297C36.0625 55.3672 36.0625 55.2969 36.0625 55.2266L36.1562 10.6406C36.1484 10.6016 36.3281 5.57812 40.3281 5.57812ZM40.3281 3.23438C35.375 3.23438 33.8047 8.1875 33.8047 10.6484L33.7109 55.2344C33.7031 55.0469 33.5469 53.6016 30.3281 48.0234C27.3125 42.7969 24.4141 40.3125 20.9453 40.3125C19.9844 40.3125 18.9687 40.5078 17.9062 40.8828C13.4062 42.4844 13.9531 48.8906 15.2578 50.8516C20.9297 59.3516 21.8437 67.4922 28.6719 78.0078C29.3862 79.106 30.2756 80.0799 31.3047 80.8906C35.2344 83.9844 38.1562 88.1875 39.2891 93.0625L39.5234 94.0703C39.6831 94.7509 40.066 95.3583 40.6112 95.7959C41.1563 96.2334 41.8323 96.4758 42.5312 96.4844L73.5391 96.7578H73.5703C74.9687 96.7578 76.1953 95.8281 76.5781 94.4844C76.5781 94.4844 85.6484 75.8984 85.6719 62.625C85.6875 53.6016 85.5625 42.2812 84.3125 39.6719C82.625 36.1406 79.3359 34.9609 76.8984 34.9609C76.3047 34.9609 75.7578 35.0313 75.2969 35.1563C75.1406 35.1953 74.9844 35.2188 74.8281 35.2188C73.7031 35.2188 72.5625 34.2031 71.8437 33.2969C71.0234 32.2656 69.7969 31.0703 68.1562 30.3672C66.7656 29.7734 65.5391 29.5547 64.4922 29.5547C63.6484 29.5547 62.9219 29.6953 62.3125 29.8906C61.9687 30 61.6172 30.0547 61.2578 30.0547C60.2891 30.0547 59.3437 29.6406 58.6953 28.8828C57.4141 27.375 55.2109 25.6719 51.8281 25.6719C50.7734 25.6719 49.6094 25.8359 48.3203 26.2266L48.3516 10.9219C48.3672 8.45313 46.3125 3.23438 40.3281 3.23438Z" fill="#EDA600"/>
<path d="M46.375 41.9609L46.0156 25.4219L47.9297 26.75C48.3906 26.75 48.7422 27.3516 48.6875 28.0391L48.0859 41.9766C47.9766 43.3672 46.4453 43.3516 46.375 41.9609Z" fill="#EDA600"/>
<path d="M33.75 61.5078L31.5547 56.0625L30.8203 54.1328L33.4141 54.8125L35.9375 55.5469L35.8672 61.3906C35.875 62.4688 34.1875 62.3594 33.75 61.5078Z" fill="#EDA600"/>
<path d="M59.7422 42.2734L59.1406 32.0625C59.1016 31.6016 61.1094 31.8672 61.1094 31.8672C61.5703 31.8672 61.9219 32.2813 61.8672 32.75L61.2656 42.3047C61.1641 43.25 59.8203 43.2266 59.7422 42.2734Z" fill="#EDA600"/>
<path d="M72.7344 42.0937L72.1328 36.5937C72.0938 36.3437 74.1016 36.4922 74.1016 36.4922C74.5625 36.4922 74.9141 36.7109 74.8594 36.9687L74.2578 42.1094C74.1485 42.6172 72.8047 42.6016 72.7344 42.0937Z" fill="#EDA600"/>
<defs>
<linearGradient id="paint0_linear_494_856" x1="50.1666" y1="4.42663" x2="49.9753" y2="95.5204" gradientUnits="userSpaceOnUse">
<stop offset="0.353" stop-color="#FFCA28"/>
<stop offset="0.872" stop-color="#FFB300"/>
</linearGradient>
</defs>
</svg>
