<svg width="51" height="51" viewBox="0 0 51 51" fill="none" xmlns="http://www.w3.org/2000/svg">
<circle cx="25" cy="26" r="25" fill="white"/>
<circle cx="25" cy="26" r="23.5" fill="#3E87FF" stroke="#3E87FF" stroke-width="3"/>
<rect width="35" height="35" transform="translate(7 8)" fill="#3E87FF"/>
<path d="M32.0012 36.0153C34.2513 36.0153 36.0589 34.1949 36.0589 31.9493C36.0589 29.7037 34.2514 27.8833 32.0012 27.8833C29.751 27.8833 27.9269 29.7037 27.9269 31.9493C27.9269 34.1949 29.751 36.0153 32.0012 36.0153ZM16.9857 39.4036C19.2144 39.4036 21.0822 37.5832 21.0822 35.3376C21.0822 33.092 19.2144 31.2716 16.9857 31.2716C14.757 31.2716 12.9502 33.092 12.9502 35.3376C12.9502 37.5832 14.757 39.4036 16.9857 39.4036Z" fill="#EF476F" stroke="white" stroke-width="2.112"/>
<path d="M32.0011 36.0154C29.7509 36.0154 27.9268 34.195 27.9268 31.9494C27.9268 29.7038 29.7509 27.8835 32.0011 27.8835C34.0566 27.8835 35.7424 29.4026 36.0188 31.3772C36.0298 31.7461 36.0363 31.9551 36.0368 31.9704L36.0585 31.9697C36.0477 34.2059 34.2444 36.0154 32.0011 36.0154ZM16.9856 39.4038C14.7569 39.4038 12.9501 37.5834 12.9501 35.3378C12.9501 33.0922 14.7569 31.2717 16.9856 31.2717C19.2143 31.2717 21.0821 33.0922 21.0821 35.3378C21.0821 37.5834 19.2143 39.4038 16.9856 39.4038ZM37.4159 31.2589C37.338 28.6409 37.0622 18.8876 37.0622 12.071C37.0622 11.5096 36.8259 11.0438 36.379 10.7243C35.5053 10.0995 33.8516 10.08 31.1751 10.6629C29.2221 11.0882 27.1891 11.7467 26.1511 12.1015C26.0035 12.1517 25.8558 12.2014 25.7078 12.2505C24.5589 12.6334 23.2567 13.0675 22.223 13.9335C21.6394 14.4225 21.1948 15.011 20.9015 15.6828C20.5755 16.4296 20.4248 17.3058 20.4537 18.2872C20.6076 23.5221 20.795 28.36 20.9272 31.5412C20.9027 31.516 20.878 31.491 20.853 31.4663C20.3478 30.9676 19.7612 30.5756 19.1093 30.3011C18.433 30.0162 17.7184 29.8717 16.9856 29.8717C16.2511 29.8717 15.5379 30.017 14.8659 30.3034C14.2182 30.5794 13.637 30.9741 13.1384 31.4765C12.6405 31.9781 12.2495 32.5624 11.9763 33.2132C11.6935 33.887 11.55 34.6018 11.55 35.3378C11.55 36.0737 11.6935 36.7885 11.9763 37.4623C12.2495 38.1131 12.6405 38.6974 13.1383 39.1991C13.637 39.7015 14.2182 40.0962 14.8659 40.3722C15.5379 40.6586 16.2511 40.8038 16.9856 40.8038C17.7184 40.8038 18.433 40.6593 19.1093 40.3745C19.7612 40.0999 20.3478 39.7079 20.853 39.2093C21.361 38.708 21.7606 38.1246 22.0408 37.4751C22.3337 36.7967 22.4821 36.0776 22.4821 35.3378C22.4821 35.327 22.4818 35.3162 22.4817 35.3055L22.4924 35.3049C22.4887 35.2263 22.1203 27.3352 21.8531 18.2461C21.8105 16.7971 22.2137 15.7678 23.1221 15.0067C23.9519 14.3115 25.0696 13.9389 26.1505 13.5786C26.3043 13.5274 26.4557 13.4769 26.6038 13.4263C27.6134 13.0813 29.5884 12.4412 31.473 12.0308C34.5502 11.3607 35.3828 11.733 35.5647 11.8632C35.6321 11.9113 35.6622 11.9528 35.6622 12.0711C35.6622 17.1971 35.8176 23.975 35.9282 28.1507C35.9074 28.1291 35.8867 28.1074 35.8655 28.0861C35.365 27.5838 34.7812 27.1894 34.1303 26.9138C33.456 26.6282 32.7396 26.4834 32.0011 26.4834C31.263 26.4834 30.5463 26.628 29.8708 26.9132C29.2188 27.1883 28.6335 27.5821 28.1312 28.0834C27.6286 28.5849 27.2339 29.1693 26.958 29.8204C26.6718 30.4955 26.5268 31.2118 26.5268 31.9494C26.5268 32.6871 26.6718 33.4034 26.958 34.0785C27.2339 34.7295 27.6286 35.314 28.1312 35.8155C28.6335 36.3168 29.2188 36.7105 29.8708 36.9857C30.5463 37.2708 31.263 37.4154 32.0011 37.4154C32.7396 37.4154 33.456 37.2706 34.1303 36.9851C34.7812 36.7095 35.365 36.315 35.8655 35.8127C36.3653 35.3111 36.7576 34.7264 37.0317 34.0749C37.3151 33.4012 37.4588 32.686 37.4588 31.9494C37.4588 31.7169 37.4444 31.4865 37.4159 31.2589Z" fill="white" stroke="white" stroke-width="2.112"/>
<rect x="4.94971" width="65" height="7" rx="3.5" transform="rotate(45 4.94971 0)" fill="#EF476F"/>
</svg>
