<svg width="30" height="30" viewBox="0 0 30 30" fill="none" xmlns="http://www.w3.org/2000/svg">
<g clip-path="url(#clip0_229_818)">
<path d="M4.68748 0.9375C4.68748 0.68886 4.78625 0.450403 4.96207 0.274587C5.13788 0.0987721 5.37634 0 5.62498 0L24.375 0C24.6236 0 24.8621 0.0987721 25.0379 0.274587C25.2137 0.450403 25.3125 0.68886 25.3125 0.9375C25.3125 1.94625 25.29 2.90625 25.2487 3.8175C25.9896 3.94018 26.6984 4.20997 27.3334 4.61096C27.9683 5.01195 28.5165 5.53602 28.9457 6.15227C29.3749 6.76851 29.6763 7.46445 29.8322 8.19905C29.9881 8.93365 29.9954 9.69203 29.8535 10.4295C29.7117 11.1669 29.4236 11.8685 29.0063 12.4928C28.5889 13.1172 28.0508 13.6516 27.4237 14.0646C26.7965 14.4777 26.093 14.761 25.3546 14.8978C24.6162 15.0346 23.8579 15.0222 23.1244 14.8613C21.6431 18.3581 19.6031 20.0681 17.8125 20.5069V24.5812L20.4844 25.2487C20.8481 25.3387 21.1912 25.5019 21.4912 25.7269L24.9375 28.3125C25.0949 28.4306 25.2112 28.5952 25.2698 28.783C25.3285 28.9708 25.3266 29.1723 25.2644 29.359C25.2021 29.5456 25.0828 29.708 24.9231 29.823C24.7635 29.9381 24.5717 30 24.375 30H5.62498C5.42821 30 5.23644 29.9381 5.07681 29.823C4.91719 29.708 4.79781 29.5456 4.73559 29.359C4.67337 29.1723 4.67145 28.9708 4.73012 28.783C4.78879 28.5952 4.90507 28.4306 5.06248 28.3125L8.50873 25.7269C8.80873 25.5019 9.15185 25.3387 9.5156 25.2487L12.1875 24.5812V20.5069C10.3969 20.0681 8.35685 18.3581 6.8756 14.8594C6.1417 15.0212 5.38282 15.0343 4.64378 14.8979C3.90473 14.7615 3.2005 14.4784 2.57269 14.0653C1.94488 13.6522 1.40621 13.1175 0.988491 12.4928C0.570775 11.8681 0.282484 11.1659 0.140644 10.4279C-0.00119566 9.68991 0.00629163 8.93095 0.162664 8.19588C0.319036 7.4608 0.621122 6.76451 1.05108 6.14813C1.48104 5.53175 2.03016 5.00778 2.666 4.60716C3.30184 4.20654 4.01151 3.9374 4.7531 3.81563C4.70896 2.85689 4.68708 1.89725 4.68748 0.9375ZM4.8731 5.7C3.8947 5.87902 3.02749 6.43938 2.46225 7.2578C1.897 8.07622 1.68002 9.08566 1.85904 10.0641C2.03806 11.0425 2.59842 11.9097 3.41684 12.4749C4.23526 13.0402 5.2447 13.2571 6.2231 13.0781C5.59873 11.1094 5.1206 8.67937 4.8731 5.7ZM23.7787 13.0781C24.7571 13.2571 25.7666 13.0402 26.585 12.4749C27.4034 11.9097 27.9638 11.0425 28.1428 10.0641C28.3218 9.08566 28.1048 8.07622 27.5396 7.2578C26.9743 6.43938 26.1071 5.87902 25.1287 5.7C24.8794 8.68125 24.4012 11.1094 23.7787 13.0781Z" fill="white"/>
</g>
<defs>
<clipPath id="clip0_229_818">
<rect width="30" height="30" fill="white"/>
</clipPath>
</defs>
</svg>
