<svg width="50" height="50" viewBox="0 0 50 50" fill="none" xmlns="http://www.w3.org/2000/svg">
<circle cx="25" cy="25" r="25" fill="white"/>
<circle cx="25" cy="25" r="23.5" fill="#3E87FF" stroke="#3E87FF" stroke-width="3"/>
<rect width="35" height="35" transform="translate(7 7)" fill="#3E87FF"/>
<path d="M32.0012 35.0153C34.2513 35.0153 36.0589 33.1949 36.0589 30.9493C36.0589 28.7037 34.2514 26.8833 32.0012 26.8833C29.751 26.8833 27.9269 28.7037 27.9269 30.9493C27.9269 33.1949 29.751 35.0153 32.0012 35.0153ZM16.9857 38.4036C19.2144 38.4036 21.0822 36.5832 21.0822 34.3376C21.0822 32.092 19.2144 30.2716 16.9857 30.2716C14.757 30.2716 12.9502 32.092 12.9502 34.3376C12.9502 36.5832 14.757 38.4036 16.9857 38.4036Z" fill="#EF476F" stroke="white" stroke-width="2.112"/>
<path d="M32.0011 35.0154C29.7509 35.0154 27.9268 33.195 27.9268 30.9494C27.9268 28.7038 29.7509 26.8835 32.0011 26.8835C34.0566 26.8835 35.7424 28.4026 36.0188 30.3772C36.0298 30.7461 36.0363 30.9551 36.0368 30.9704L36.0585 30.9697C36.0477 33.2059 34.2444 35.0154 32.0011 35.0154ZM16.9856 38.4038C14.7569 38.4038 12.9501 36.5834 12.9501 34.3378C12.9501 32.0922 14.7569 30.2717 16.9856 30.2717C19.2143 30.2717 21.0821 32.0922 21.0821 34.3378C21.0821 36.5834 19.2143 38.4038 16.9856 38.4038ZM37.4159 30.2589C37.338 27.6409 37.0622 17.8876 37.0622 11.071C37.0622 10.5096 36.8259 10.0438 36.379 9.72429C35.5053 9.09954 33.8516 9.08005 31.1751 9.66287C29.2221 10.0882 27.1891 10.7467 26.1511 11.1015C26.0035 11.1517 25.8558 11.2014 25.7078 11.2505C24.5589 11.6334 23.2567 12.0675 22.223 12.9335C21.6394 13.4225 21.1948 14.011 20.9015 14.6828C20.5755 15.4296 20.4248 16.3058 20.4537 17.2872C20.6076 22.5221 20.795 27.36 20.9272 30.5412C20.9027 30.516 20.878 30.491 20.853 30.4663C20.3478 29.9676 19.7612 29.5756 19.1093 29.3011C18.433 29.0162 17.7184 28.8717 16.9856 28.8717C16.2511 28.8717 15.5379 29.017 14.8659 29.3034C14.2182 29.5794 13.637 29.9741 13.1384 30.4765C12.6405 30.9781 12.2495 31.5624 11.9763 32.2132C11.6935 32.887 11.55 33.6018 11.55 34.3378C11.55 35.0737 11.6935 35.7885 11.9763 36.4623C12.2495 37.1131 12.6405 37.6974 13.1383 38.1991C13.637 38.7015 14.2182 39.0962 14.8659 39.3722C15.5379 39.6586 16.2511 39.8038 16.9856 39.8038C17.7184 39.8038 18.433 39.6593 19.1093 39.3745C19.7612 39.0999 20.3478 38.7079 20.853 38.2093C21.361 37.708 21.7606 37.1246 22.0408 36.4751C22.3337 35.7967 22.4821 35.0776 22.4821 34.3378C22.4821 34.327 22.4818 34.3162 22.4817 34.3055L22.4924 34.3049C22.4887 34.2263 22.1203 26.3352 21.8531 17.2461C21.8105 15.7971 22.2137 14.7678 23.1221 14.0067C23.9519 13.3115 25.0696 12.9389 26.1505 12.5786C26.3043 12.5274 26.4557 12.4769 26.6038 12.4263C27.6134 12.0813 29.5884 11.4412 31.473 11.0308C34.5502 10.3607 35.3828 10.733 35.5647 10.8632C35.6321 10.9113 35.6622 10.9528 35.6622 11.0711C35.6622 16.1971 35.8176 22.975 35.9282 27.1507C35.9074 27.1291 35.8867 27.1074 35.8655 27.0861C35.365 26.5838 34.7812 26.1894 34.1303 25.9138C33.456 25.6282 32.7396 25.4834 32.0011 25.4834C31.263 25.4834 30.5463 25.628 29.8708 25.9132C29.2188 26.1883 28.6335 26.5821 28.1312 27.0834C27.6286 27.5849 27.2339 28.1693 26.958 28.8204C26.6718 29.4955 26.5268 30.2118 26.5268 30.9494C26.5268 31.6871 26.6718 32.4034 26.958 33.0785C27.2339 33.7295 27.6286 34.314 28.1312 34.8155C28.6335 35.3168 29.2188 35.7105 29.8708 35.9857C30.5463 36.2708 31.263 36.4154 32.0011 36.4154C32.7396 36.4154 33.456 36.2706 34.1303 35.9851C34.7812 35.7095 35.365 35.315 35.8655 34.8127C36.3653 34.3111 36.7576 33.7264 37.0317 33.0749C37.3151 32.4012 37.4588 31.686 37.4588 30.9494C37.4588 30.7169 37.4444 30.4865 37.4159 30.2589Z" fill="white" stroke="white" stroke-width="2.112"/>
</svg>
