<svg width="30" height="30" viewBox="0 0 30 30" fill="none" xmlns="http://www.w3.org/2000/svg">
<g clip-path="url(#clip0_533_959)">
<path d="M29.5312 15C29.5312 23.0272 23.0248 29.5312 15 29.5312C6.97518 29.5312 0.46875 23.0272 0.46875 15C0.46875 6.97752 6.97518 0.46875 15 0.46875C23.0248 0.46875 29.5312 6.97752 29.5312 15ZM15.3899 5.27344C12.1968 5.27344 10.1602 6.61857 8.5609 9.00926C8.35371 9.31898 8.42303 9.7367 8.71998 9.96188L10.7531 11.5035C11.0581 11.7347 11.4926 11.6797 11.7296 11.3791C12.7763 10.0515 13.494 9.28166 15.0872 9.28166C16.2842 9.28166 17.7648 10.0521 17.7648 11.2128C17.7648 12.0903 17.0404 12.5409 15.8585 13.2036C14.4802 13.9763 12.6562 14.9379 12.6562 17.3438V17.5781C12.6562 17.9664 12.9711 18.2812 13.3594 18.2812H16.6406C17.0289 18.2812 17.3438 17.9664 17.3438 17.5781V17.5C17.3438 15.8323 22.2179 15.7629 22.2179 11.25C22.2179 7.85145 18.6926 5.27344 15.3899 5.27344ZM15 19.8047C13.5138 19.8047 12.3047 21.0138 12.3047 22.5C12.3047 23.9862 13.5138 25.1953 15 25.1953C16.4862 25.1953 17.6953 23.9862 17.6953 22.5C17.6953 21.0138 16.4862 19.8047 15 19.8047Z" fill="white"/>
</g>
<defs>
<clipPath id="clip0_533_959">
<rect width="30" height="30" fill="white"/>
</clipPath>
</defs>
</svg>
