<svg width="30" height="30" viewBox="0 0 30 30" fill="none" xmlns="http://www.w3.org/2000/svg">
<g clip-path="url(#clip0_532_952)">
<path fill-rule="evenodd" clip-rule="evenodd" d="M27 25.0129C27 25.8001 26.2605 26.4286 25.4325 26.4286H20.9325C20.106 26.4286 19.5 25.8001 19.5 25.0129V20.7272C19.5 19.9401 20.106 19.2858 20.9325 19.2858H25.4325C26.2605 19.2858 27 19.9401 27 20.7272V25.0129ZM25.4325 16.4286H20.9325C18.447 16.4286 16.5 18.3601 16.5 20.7272V25.0129C16.5 27.3801 18.447 29.2858 20.9325 29.2858H25.4325C27.918 29.2858 30 27.3801 30 25.0129V20.7272C30 18.3601 27.918 16.4286 25.4325 16.4286ZM10.5 25.0129C10.5 25.8001 9.7605 26.4286 8.9325 26.4286H4.4325C3.606 26.4286 3 25.8001 3 25.0129V20.7272C3 19.9401 3.606 19.2858 4.4325 19.2858H8.9325C9.7605 19.2858 10.5 19.9401 10.5 20.7272V25.0129ZM8.9325 16.4286H4.4325C1.947 16.4286 0 18.3601 0 20.7272V25.0129C0 27.3801 1.947 29.2858 4.4325 29.2858H8.9325C11.418 29.2858 13.5 27.3801 13.5 25.0129V20.7272C13.5 18.3601 11.418 16.4286 8.9325 16.4286ZM27 9.29864C27 10.0858 26.2605 10.7144 25.4325 10.7144H20.9325C20.106 10.7144 19.5 10.0858 19.5 9.29864V5.01293C19.5 4.22578 20.106 3.5715 20.9325 3.5715H25.4325C26.2605 3.5715 27 4.22578 27 5.01293V9.29864ZM25.4325 0.714355H20.9325C18.447 0.714355 16.5 2.64578 16.5 5.01293V9.29864C16.5 11.6658 18.447 13.5715 20.9325 13.5715H25.4325C27.918 13.5715 30 11.6658 30 9.29864V5.01293C30 2.64578 27.918 0.714355 25.4325 0.714355ZM10.5 9.29864C10.5 10.0858 9.7605 10.7144 8.9325 10.7144H4.4325C3.606 10.7144 3 10.0858 3 9.29864V5.01293C3 4.22578 3.606 3.5715 4.4325 3.5715H8.9325C9.7605 3.5715 10.5 4.22578 10.5 5.01293V9.29864ZM8.9325 0.714355H4.4325C1.947 0.714355 0 2.64578 0 5.01293V9.29864C0 11.6658 1.947 13.5715 4.4325 13.5715H8.9325C11.418 13.5715 13.5 11.6658 13.5 9.29864V5.01293C13.5 2.64578 11.418 0.714355 8.9325 0.714355Z" fill="white"/>
</g>
<defs>
<clipPath id="clip0_532_952">
<rect width="30" height="30" fill="white"/>
</clipPath>
</defs>
</svg>
