<svg width="16" height="20" viewBox="0 0 16 20" fill="none" xmlns="http://www.w3.org/2000/svg">
<path d="M13.5223 0H1.78141C0.79711 0.0003125 0 0.797383 0 1.78137V18.2186C0 19.2026 0.79707 19.9997 1.78137 20H13.5223C14.5059 19.9997 15.303 19.2026 15.3036 18.2186V1.78137C15.303 0.797383 14.5059 0.0003125 13.5223 0ZM14.332 18.2186C14.3314 18.6655 13.9689 19.0274 13.5223 19.0284H1.78141C1.33418 19.0274 0.972344 18.6655 0.97168 18.2186V1.78137C0.972305 1.33445 1.33418 0.972578 1.78141 0.971641H13.5223C13.9689 0.972578 14.3314 1.33445 14.332 1.78137V18.2186H14.332Z" fill="#EF476F"/>
<path d="M4.12941 15.8705H1.78125V18.2186H4.12941V15.8705Z" fill="#EF476F"/>
<path d="M8.82619 15.8705H6.47803V18.2186H8.82619V15.8705Z" fill="#EF476F"/>
<path d="M13.5225 15.8705H11.1743V18.2186H13.5225V15.8705Z" fill="#EF476F"/>
<path d="M4.12941 11.1741H1.78125V13.5223H4.12941V11.1741Z" fill="#EF476F"/>
<path d="M8.82619 11.1741H6.47803V13.5223H8.82619V11.1741Z" fill="#EF476F"/>
<path d="M13.5225 11.1741H11.1743V13.5223H13.5225V11.1741Z" fill="#EF476F"/>
<path d="M6.4776 13.5223H4.12939V15.8705H6.4776V13.5223Z" fill="#EF476F"/>
<path d="M11.1738 13.5223H8.82568V15.8705H11.1738V13.5223Z" fill="#EF476F"/>
<path d="M4.12941 6.47772H1.78125V8.82589H4.12941V6.47772Z" fill="#EF476F"/>
<path d="M8.82619 6.47772H6.47803V8.82589H8.82619V6.47772Z" fill="#EF476F"/>
<path d="M13.5225 6.47772H11.1743V8.82589H13.5225V6.47772Z" fill="#EF476F"/>
<path d="M6.4776 8.82587H4.12939V11.1741H6.4776V8.82587Z" fill="#EF476F"/>
<path d="M11.1738 8.82587H8.82568V11.1741H11.1738V8.82587Z" fill="#EF476F"/>
<path d="M4.12941 1.78137H1.78125V4.12954H4.12941V1.78137Z" fill="#EF476F"/>
<path d="M8.82619 1.78137H6.47803V4.12954H8.82619V1.78137Z" fill="#EF476F"/>
<path d="M13.5225 1.78137H11.1743V4.12954H13.5225V1.78137Z" fill="#EF476F"/>
<path d="M6.4776 4.12952H4.12939V6.47772H6.4776V4.12952Z" fill="#EF476F"/>
<path d="M11.1738 4.12952H8.82568V6.47772H11.1738V4.12952Z" fill="#EF476F"/>
</svg>
