<svg width="20" height="20" viewBox="0 0 20 20" fill="none" xmlns="http://www.w3.org/2000/svg">
<path d="M10.6328 1.12969L12.7359 5.92656C12.815 6.10709 12.9412 6.26307 13.1011 6.37823C13.2611 6.49339 13.449 6.5635 13.6453 6.58125L18.7687 7.04063C19.3484 7.125 19.5797 7.83594 19.1594 8.24531L15.3 11.4875C14.9875 11.75 14.8453 12.1625 14.9312 12.5609L16.0531 17.8125C16.1516 18.3891 15.5469 18.8297 15.0281 18.5563L10.5562 15.9375C10.3876 15.8385 10.1956 15.7863 9.99999 15.7863C9.80443 15.7863 9.6124 15.8385 9.44374 15.9375L4.97187 18.5547C4.45468 18.8266 3.84843 18.3875 3.94687 17.8109L5.06874 12.5594C5.15312 12.1609 5.01249 11.7484 4.69999 11.4859L0.839054 8.24687C0.420304 7.83906 0.651554 7.12656 1.22968 7.04219L6.35312 6.58281C6.54942 6.56507 6.73735 6.49495 6.89731 6.3798C7.05727 6.26464 7.18338 6.10865 7.26249 5.92812L9.36562 1.13125C9.62655 0.60625 10.3734 0.60625 10.6328 1.12969Z" fill="#FDD835"/>
<path d="M10.4797 6.21401L10.1234 2.67964C10.1094 2.48276 10.0687 2.14526 10.3844 2.14526C10.6344 2.14526 10.7703 2.66558 10.7703 2.66558L11.8391 5.50308C12.2422 6.58276 12.0766 6.95308 11.6875 7.17183C11.2406 7.42183 10.5812 7.22651 10.4797 6.21401Z" fill="#FFFF8D"/>
<path d="M14.8875 11.1735L17.9532 8.7813C18.1047 8.65474 18.3782 8.45317 18.1594 8.22349C17.986 8.04224 17.5172 8.30317 17.5172 8.30317L14.8344 9.35161C14.0344 9.62817 13.5032 10.0375 13.4563 10.5532C13.3954 11.2407 14.0125 11.7704 14.8875 11.1735Z" fill="#F4B400"/>
</svg>
