<svg width="30" height="30" viewBox="0 0 30 30" fill="none" xmlns="http://www.w3.org/2000/svg">
<g clip-path="url(#clip0_532_930)">
<path d="M26.2606 9.32779L26.2553 9.28027L26.2108 9.29891C25.8697 9.59973 24.6775 10.1355 24.32 10.1911L24.2976 10.2028L24.2987 10.2279C24.4291 10.5656 24.5611 11.8658 24.4714 12.3115L24.4775 12.3594L24.5212 12.3404C24.8623 12.0396 26.0541 11.5038 26.4123 11.4482L26.4344 11.4365L26.4336 11.4114C26.3025 11.0737 26.1706 9.77352 26.2606 9.32779Z" fill="white"/>
<path d="M4.96477 20.6628H2.1416V23.486H4.96477V20.6628Z" fill="white"/>
<path d="M10.6113 20.6628H7.78809V23.486H10.6113V20.6628Z" fill="white"/>
<path d="M16.2577 20.6628H13.4346V23.486H16.2577V20.6628Z" fill="white"/>
<path d="M4.96477 15.0166H2.1416V17.8398H4.96477V15.0166Z" fill="white"/>
<path d="M10.6113 15.0166H7.78809V17.8398H10.6113V15.0166Z" fill="white"/>
<path d="M16.2577 15.0166H13.4346V17.8398H16.2577V15.0166Z" fill="white"/>
<path d="M7.78801 17.8396H4.96484V20.6628H7.78801V17.8396Z" fill="white"/>
<path d="M13.4345 17.8396H10.6113V20.6628H13.4345V17.8396Z" fill="white"/>
<path d="M4.96477 9.37012H2.1416V12.1933H4.96477V9.37012Z" fill="white"/>
<path d="M10.6113 9.37012H7.78809V12.1933H10.6113V9.37012Z" fill="white"/>
<path d="M16.2577 9.37012H13.4346V12.1933H16.2577V9.37012Z" fill="white"/>
<path d="M7.78801 12.1934H4.96484V15.0165H7.78801V12.1934Z" fill="white"/>
<path d="M13.4345 12.1934H10.6113V15.0165H13.4345V12.1934Z" fill="white"/>
<path d="M4.96477 3.72363H2.1416V6.5468H4.96477V3.72363Z" fill="white"/>
<path d="M10.6113 3.72363H7.78809V6.5468H10.6113V3.72363Z" fill="white"/>
<path d="M16.2577 3.72363H13.4346V6.5468H16.2577V3.72363Z" fill="white"/>
<path d="M7.78801 6.54688H4.96484V9.37004H7.78801V6.54688Z" fill="white"/>
<path d="M13.4345 6.54688H10.6113V9.37004H13.4345V6.54688Z" fill="white"/>
<path d="M28.9134 8.01096L16.6277 1.06022C15.701 0.538444 14.5484 0.775748 13.9095 1.58194H2.14172C0.958301 1.58235 0 2.54065 0 3.72372V23.4861C0 24.6692 0.958301 25.6275 2.14172 25.6278H11.2228L17.0715 28.9378C18.1035 29.5219 19.4079 29.1598 19.992 28.1316L29.7234 10.9315C30.3037 9.89985 29.9413 8.59508 28.9134 8.01096ZM9.15486 24.4596H2.14172C1.60395 24.4584 1.16895 24.0234 1.16818 23.486V3.72372C1.16895 3.18635 1.60395 2.7513 2.14172 2.75018H13.2124H14.5521H16.2577C16.7946 2.7513 17.2304 3.18635 17.2312 3.72372V11.3559V18.0618V23.4861C17.2304 24.0235 16.7946 24.4585 16.2577 24.4596H11.5304H9.15486V24.4596ZM28.7069 10.3554L18.9717 27.5554C18.7071 28.0228 18.115 28.1863 17.648 27.9212L13.5942 25.6278H16.2577C17.4403 25.6274 18.3986 24.6691 18.3994 23.4861V18.2253V16.7715C19.1447 16.446 19.8364 16.1957 20.1867 16.1391L20.2372 16.1121L20.2335 16.0535C19.9338 15.2709 19.6262 12.253 19.8323 11.2133C19.8441 11.1548 19.8479 11.1198 19.8209 11.1042C19.7935 11.0886 19.7661 11.108 19.7193 11.1472C19.4543 11.3811 18.9641 11.6788 18.3994 11.9735V11.2547V3.72372C18.3994 3.60928 18.3875 3.49743 18.3705 3.38751L18.372 3.38862L28.3368 9.02745C28.8043 9.29212 28.9678 9.88807 28.7069 10.3554Z" fill="white"/>
</g>
<defs>
<clipPath id="clip0_532_930">
<rect width="30" height="30" fill="white"/>
</clipPath>
</defs>
</svg>
