<svg width="500" height="500" viewBox="0 0 500 500" fill="none" xmlns="http://www.w3.org/2000/svg">
<rect width="500" height="500" rx="250" fill="#FFD166"/>
<path d="M150.548 185.587C148.905 183.94 146.748 183.117 144.587 183.117C142.439 183.117 140.29 183.932 138.651 185.562C121.09 203.002 111.416 226.217 111.416 250.931C111.416 275.08 120.708 297.914 137.583 315.231C140.824 318.548 146.144 318.626 149.479 315.403C152.811 312.175 152.889 306.863 149.652 303.541C135.845 289.37 128.242 270.689 128.242 250.931C128.242 230.71 136.153 211.718 150.523 197.448C153.817 194.18 153.826 188.868 150.548 185.587Z" fill="#3E87FF"/>
<path d="M107.976 147.475C106.335 145.825 104.182 145 102.023 145C99.8776 145 97.7319 145.817 96.0949 147.45C68.3031 175.147 53 212.01 53 251.255C53 289.592 67.7042 325.848 94.4045 353.344C97.6416 356.673 102.955 356.747 106.286 353.516C109.613 350.281 109.691 344.957 106.458 341.628C82.8223 317.285 69.8046 285.191 69.8046 251.255C69.8046 216.514 83.3517 183.883 107.952 159.363C111.242 156.087 111.25 150.763 107.976 147.475Z" fill="#3E87FF"/>
<path d="M454.811 243.762C437.943 222.613 409.668 169.968 396.1 145.309C379.958 115.957 331.543 111.556 317.137 141.198V140.515C317.094 140.634 317.043 140.745 317 140.856C316.949 140.754 316.906 140.643 316.872 140.532V141.189C302.457 111.539 254.042 115.939 237.901 145.291C224.332 169.951 196.057 222.605 179.189 243.744C177.335 246.068 175.703 250.025 178.506 254.562C194.724 280.701 254.879 379.546 316.872 379.546C316.957 379.546 317.043 379.563 317.137 379.563C379.129 379.563 439.276 280.717 455.494 254.579C458.297 250.033 456.665 246.077 454.811 243.762ZM317.137 303.157V303.14C317.043 303.14 316.957 303.14 316.872 303.14C257.87 303.14 231.535 253.93 226.16 250.145C229.091 242.138 262.852 204.498 269.876 198.406C292.186 179.035 302.09 199.671 316.873 199.671C316.89 199.671 316.907 199.662 316.924 199.662C316.992 199.671 317.061 199.679 317.138 199.679C331.912 199.679 341.815 179.052 364.126 198.414C371.15 204.515 404.91 242.147 407.841 250.162C402.465 253.938 376.13 303.157 317.137 303.157Z" fill="#EF476F"/>
</svg>
