<svg width="36" height="36" viewBox="0 0 36 36" fill="none" xmlns="http://www.w3.org/2000/svg">
<path d="M28.5668 0H7.43322C5.66148 0.0005625 4.22668 1.43529 4.22668 3.20646V32.7935C4.22668 34.5647 5.66141 35.9994 7.43315 36H28.5668C30.3374 35.9994 31.7722 34.5647 31.7732 32.7935V3.20646C31.7722 1.43529 30.3374 0.0005625 28.5668 0ZM30.0243 32.7935C30.0231 33.598 29.3706 34.2494 28.5668 34.251H7.43322C6.62821 34.2494 5.9769 33.598 5.97571 32.7935V3.20646C5.97683 2.40202 6.62821 1.75064 7.43322 1.74895H28.5668C29.3707 1.75064 30.0232 2.40202 30.0243 3.20646V32.7935H30.0243Z" fill="#EF476F"/>
<path d="M11.6599 28.5669H7.43323V32.7936H11.6599V28.5669Z" fill="#EF476F"/>
<path d="M20.1133 28.5669H15.8866V32.7936H20.1133V28.5669Z" fill="#EF476F"/>
<path d="M28.5669 28.5669H24.3401V32.7936H28.5669V28.5669Z" fill="#EF476F"/>
<path d="M11.6599 20.1134H7.43323V24.3401H11.6599V20.1134Z" fill="#EF476F"/>
<path d="M20.1133 20.1134H15.8866V24.3401H20.1133V20.1134Z" fill="#EF476F"/>
<path d="M28.5669 20.1134H24.3401V24.3401H28.5669V20.1134Z" fill="#EF476F"/>
<path d="M15.8867 24.3401H11.6599V28.5669H15.8867V24.3401Z" fill="#EF476F"/>
<path d="M24.34 24.3401H20.1133V28.5669H24.34V24.3401Z" fill="#EF476F"/>
<path d="M11.6599 11.6599H7.43323V15.8866H11.6599V11.6599Z" fill="#EF476F"/>
<path d="M20.1133 11.6599H15.8866V15.8866H20.1133V11.6599Z" fill="#EF476F"/>
<path d="M28.5669 11.6599H24.3401V15.8866H28.5669V11.6599Z" fill="#EF476F"/>
<path d="M15.8867 15.8866H11.6599V20.1134H15.8867V15.8866Z" fill="#EF476F"/>
<path d="M24.34 15.8866H20.1133V20.1134H24.34V15.8866Z" fill="#EF476F"/>
<path d="M11.6599 3.20642H7.43323V7.43312H11.6599V3.20642Z" fill="#EF476F"/>
<path d="M20.1133 3.20642H15.8866V7.43312H20.1133V3.20642Z" fill="#EF476F"/>
<path d="M28.5669 3.20642H24.3401V7.43312H28.5669V3.20642Z" fill="#EF476F"/>
<path d="M15.8867 7.43311H11.6599V11.6599H15.8867V7.43311Z" fill="#EF476F"/>
<path d="M24.34 7.43311H20.1133V11.6599H24.34V7.43311Z" fill="#EF476F"/>
</svg>
