<svg width="36" height="36" viewBox="0 0 36 36" fill="none" xmlns="http://www.w3.org/2000/svg">
<path d="M19.1391 2.03344L22.9247 10.6678C23.0671 10.9928 23.2941 11.2735 23.582 11.4808C23.87 11.6881 24.2083 11.8143 24.5616 11.8462L33.7838 12.6731C34.8272 12.825 35.2435 14.1047 34.4869 14.8416L27.54 20.6775C26.9775 21.15 26.7216 21.8925 26.8763 22.6097L28.8957 32.0625C29.0728 33.1003 27.9844 33.8934 27.0507 33.4013L19.0013 28.6875C18.6977 28.5093 18.3521 28.4154 18 28.4154C17.648 28.4154 17.3024 28.5093 16.9988 28.6875L8.94941 33.3984C8.01847 33.8878 6.92722 33.0975 7.10441 32.0597L9.12378 22.6069C9.27566 21.8897 9.02253 21.1472 8.46003 20.6747L1.51035 14.8444C0.756596 14.1103 1.17285 12.8278 2.21347 12.6759L11.4357 11.8491C11.789 11.8171 12.1273 11.6909 12.4152 11.4836C12.7031 11.2763 12.9301 10.9956 13.0725 10.6706L16.8582 2.03625C17.3278 1.09125 18.6722 1.09125 19.1391 2.03344Z" fill="#FDD835"/>
<path d="M18.8635 11.1853L18.2222 4.82345C18.1969 4.46907 18.1238 3.86157 18.6919 3.86157C19.1419 3.86157 19.3866 4.79813 19.3866 4.79813L21.3104 9.90564C22.036 11.8491 21.7379 12.5156 21.0375 12.9094C20.2332 13.3594 19.0463 13.0078 18.8635 11.1853Z" fill="#FFFF8D"/>
<path d="M26.7975 20.1121L32.3156 15.8061C32.5884 15.5783 33.0806 15.2155 32.6868 14.8021C32.3746 14.4758 31.5309 14.9455 31.5309 14.9455L26.7018 16.8327C25.2618 17.3305 24.3056 18.0674 24.2212 18.9955C24.1115 20.233 25.2225 21.1865 26.7975 20.1121Z" fill="#F4B400"/>
</svg>
