<svg width="55" height="55" viewBox="0 0 55 55" fill="none" xmlns="http://www.w3.org/2000/svg">
<path d="M15.6664 15.8169L9.59058 11.9239C9.4681 11.8488 9.36421 11.747 9.28673 11.626C9.20925 11.505 9.1602 11.368 9.14324 11.2254C9.12629 11.0827 9.14188 10.9381 9.18885 10.8023C9.23581 10.6665 9.31293 10.5432 9.41441 10.4415L11.6961 8.15983C12.1343 7.72155 12.8734 7.81608 13.1871 8.35319L16.9855 14.5278C17.4839 15.3786 16.5086 16.3325 15.6664 15.8169Z" fill="#FFC107"/>
<path d="M10.3554 34.5427L3.29995 34.6845C3.15648 34.6876 3.01559 34.7232 2.88785 34.7886C2.76011 34.854 2.64884 34.9474 2.56242 35.062C2.47599 35.1765 2.41664 35.3092 2.38884 35.4499C2.36104 35.5907 2.36551 35.736 2.4019 35.8748L3.2226 38.9943C3.38159 39.5959 4.06479 39.8838 4.6062 39.583L10.841 36.3216C11.7003 35.8361 11.3437 34.5213 10.3554 34.5427Z" fill="#FFC107"/>
<path d="M26.7437 46.5268L25.1969 53.3975C25.0551 53.9947 25.5062 54.5705 26.1207 54.5705H29.3477C29.9707 54.5705 30.4219 53.9818 30.2672 53.3803L28.5871 46.5096C28.3379 45.5514 26.9758 45.5643 26.7437 46.5268Z" fill="#FFC107"/>
<path d="M39.3336 15.8169L45.4094 11.9239C45.9336 11.6016 46.0195 10.8755 45.5855 10.4415L43.3039 8.15983C43.201 8.0574 43.0761 7.97989 42.9386 7.93324C42.8012 7.88659 42.6549 7.87204 42.5109 7.89071C42.367 7.90937 42.2292 7.96076 42.1082 8.04093C41.9872 8.1211 41.8862 8.22791 41.8129 8.35319L38.0144 14.5278C37.516 15.3786 38.4914 16.3325 39.3336 15.8169Z" fill="#FFC107"/>
<path d="M44.6445 34.5427L51.7 34.6845C51.8435 34.6876 51.9843 34.7232 52.1121 34.7886C52.2398 34.854 52.3511 34.9474 52.4375 35.062C52.5239 35.1765 52.5833 35.3092 52.6111 35.4499C52.6389 35.5907 52.6344 35.736 52.598 35.8748L51.7773 38.9943C51.7402 39.1345 51.6715 39.2644 51.5766 39.374C51.4816 39.4836 51.3629 39.5701 51.2294 39.6269C51.096 39.6837 50.9513 39.7092 50.8065 39.7016C50.6617 39.694 50.5205 39.6534 50.3937 39.583L44.159 36.3216C43.2996 35.8361 43.6562 34.5213 44.6445 34.5427Z" fill="#FFC107"/>
<path d="M29.2403 3.10664L35.0239 16.298C35.2414 16.7945 35.5882 17.2235 36.0281 17.5401C36.468 17.8568 36.9848 18.0496 37.5246 18.0984L51.6141 19.3617C53.2082 19.5937 53.8442 21.5488 52.6883 22.6746L42.075 31.5906C41.2157 32.3125 40.8246 33.4469 41.061 34.5426L44.1461 48.9844C44.4168 50.5699 42.7539 51.7816 41.3274 51.0297L29.0297 43.8281C28.5659 43.5559 28.0378 43.4124 27.5 43.4124C26.9622 43.4124 26.4342 43.5559 25.9704 43.8281L13.6727 51.0254C12.2504 51.773 10.5832 50.5656 10.8539 48.9801L13.9391 34.5383C14.1711 33.4426 13.7844 32.3082 12.925 31.5863L2.30746 22.6789C1.1559 21.5574 1.79184 19.598 3.38168 19.366L17.4711 18.1027C18.011 18.0539 18.5278 17.8611 18.9677 17.5444C19.4076 17.2277 19.7544 16.7988 19.9719 16.3023L25.7555 3.11094C26.4731 1.66719 28.527 1.66719 29.2403 3.10664Z" fill="#FDD835"/>
<path d="M28.8191 17.0887L27.8395 7.36919C27.8008 6.82778 27.6891 5.89966 28.557 5.89966C29.2445 5.89966 29.6184 7.33052 29.6184 7.33052L32.5574 15.1336C33.666 18.1028 33.2105 19.1211 32.1406 19.7227C30.9117 20.4102 29.0984 19.8731 28.8191 17.0887Z" fill="#FFFF8D"/>
<path d="M40.9406 30.7269L49.3711 24.1484C49.7879 23.8003 50.5398 23.246 49.9383 22.6144C49.4613 22.116 48.1723 22.8335 48.1723 22.8335L40.7945 25.7167C38.5945 26.4773 37.1336 27.6031 37.0047 29.021C36.8371 30.9117 38.5344 32.3683 40.9406 30.7269Z" fill="#F4B400"/>
</svg>
