<svg width="45" height="45" viewBox="0 0 45 45" fill="none" xmlns="http://www.w3.org/2000/svg">
<circle cx="22.5" cy="22.5" r="22.5" fill="white"/>
<g clip-path="url(#clip0_483_871)">
<path d="M45 22.5C45 28.4674 42.6295 34.1903 38.4099 38.4099C34.1903 42.6295 28.4674 45 22.5 45C16.5326 45 10.8097 42.6295 6.5901 38.4099C2.37053 34.1903 0 28.4674 0 22.5C0 16.5326 2.37053 10.8097 6.5901 6.5901C10.8097 2.37053 16.5326 0 22.5 0C28.4674 0 34.1903 2.37053 38.4099 6.5901C42.6295 10.8097 45 16.5326 45 22.5ZM15.0581 13.0669C14.7941 12.8028 14.4359 12.6545 14.0625 12.6545C13.6891 12.6545 13.3309 12.8028 13.0669 13.0669C12.8028 13.3309 12.6545 13.6891 12.6545 14.0625C12.6545 14.4359 12.8028 14.7941 13.0669 15.0581L20.5116 22.5L13.0669 29.9419C12.9361 30.0726 12.8324 30.2278 12.7617 30.3987C12.6909 30.5695 12.6545 30.7526 12.6545 30.9375C12.6545 31.1224 12.6909 31.3055 12.7617 31.4763C12.8324 31.6472 12.9361 31.8024 13.0669 31.9331C13.3309 32.1972 13.6891 32.3455 14.0625 32.3455C14.2474 32.3455 14.4305 32.3091 14.6013 32.2383C14.7722 32.1676 14.9274 32.0639 15.0581 31.9331L22.5 24.4884L29.9419 31.9331C30.0726 32.0639 30.2278 32.1676 30.3987 32.2383C30.5695 32.3091 30.7526 32.3455 30.9375 32.3455C31.1224 32.3455 31.3055 32.3091 31.4763 32.2383C31.6472 32.1676 31.8024 32.0639 31.9331 31.9331C32.0639 31.8024 32.1676 31.6472 32.2383 31.4763C32.3091 31.3055 32.3455 31.1224 32.3455 30.9375C32.3455 30.7526 32.3091 30.5695 32.2383 30.3987C32.1676 30.2278 32.0639 30.0726 31.9331 29.9419L24.4884 22.5L31.9331 15.0581C32.0639 14.9274 32.1676 14.7722 32.2383 14.6013C32.3091 14.4305 32.3455 14.2474 32.3455 14.0625C32.3455 13.8776 32.3091 13.6945 32.2383 13.5237C32.1676 13.3528 32.0639 13.1976 31.9331 13.0669C31.8024 12.9361 31.6472 12.8324 31.4763 12.7617C31.3055 12.6909 31.1224 12.6545 30.9375 12.6545C30.7526 12.6545 30.5695 12.6909 30.3987 12.7617C30.2278 12.8324 30.0726 12.9361 29.9419 13.0669L22.5 20.5116L15.0581 13.0669Z" fill="#3E87FF"/>
</g>
<defs>
<clipPath id="clip0_483_871">
<rect width="45" height="45" fill="white"/>
</clipPath>
</defs>
</svg>
