<svg width="135" height="71" viewBox="0 0 135 71" fill="none" xmlns="http://www.w3.org/2000/svg">
<path d="M119.068 37.9511L119.069 37.9511L131.862 39.0982C132.887 39.257 133.296 40.5102 132.562 41.2432L122.928 49.3359C122.006 50.1107 121.585 51.3294 121.839 52.5077C121.839 52.5077 121.839 52.5077 121.839 52.5078L124.641 65.6248C124.809 66.6512 123.737 67.4313 122.813 66.9531L111.644 60.4125C111.145 60.12 110.578 59.9658 110 59.9658C109.422 59.9658 108.855 60.12 108.356 60.4125L97.1877 66.949C96.2655 67.4248 95.191 66.645 95.3585 65.6209L98.1608 52.5029L98.161 52.502C98.41 51.3264 97.9951 50.1077 97.0716 49.332L97.0713 49.3318L87.4343 41.247C86.7041 40.5177 87.1133 39.2609 88.1337 39.1021L100.927 37.955L100.928 37.955C101.508 37.9026 102.063 37.6955 102.535 37.3553C103.008 37.0151 103.38 36.5543 103.614 36.021L108.867 24.0407C109.339 23.1098 110.662 23.1131 111.129 24.0366L116.382 36.0171C116.382 36.0171 116.382 36.0171 116.382 36.0172C116.616 36.5504 116.988 37.0112 117.461 37.3514C117.933 37.6916 118.488 37.8987 119.068 37.9511Z" fill="#FDD835" stroke="#F4B400"/>
<path d="M111.199 36.5352L110.309 27.6992C110.273 27.207 110.172 26.3633 110.961 26.3633C111.586 26.3633 111.926 27.6641 111.926 27.6641L114.598 34.7578C115.605 37.457 115.191 38.3828 114.219 38.9297C113.102 39.5547 111.453 39.0664 111.199 36.5352Z" fill="#FFFF8D"/>
<path d="M122.219 48.9336L129.883 42.9531C130.262 42.6367 130.945 42.1328 130.398 41.5586C129.965 41.1055 128.793 41.7578 128.793 41.7578L122.086 44.3789C120.086 45.0703 118.758 46.0937 118.641 47.3828C118.488 49.1016 120.031 50.4258 122.219 48.9336Z" fill="#F4B400"/>
<path d="M34.0682 37.9511L34.0686 37.9511L46.8624 39.0982C47.8868 39.257 48.2959 40.5102 47.5616 41.2432L37.9284 49.3359C37.0061 50.1107 36.5852 51.3294 36.8393 52.5077C36.8393 52.5077 36.8393 52.5077 36.8393 52.5078L39.6415 65.6248C39.8094 66.6512 38.7365 67.4313 37.8126 66.9531L26.6437 60.4125C26.1453 60.12 25.5779 59.9658 25 59.9658C24.4221 59.9658 23.8547 60.12 23.3563 60.4125L12.1877 66.949C11.2655 67.4248 10.191 66.645 10.3585 65.6209L13.1608 52.5029L13.161 52.502C13.41 51.3264 12.9951 50.1077 12.0716 49.332L12.0713 49.3318L2.4343 41.247C1.70407 40.5177 2.11332 39.2609 3.13374 39.1021L15.9274 37.955L15.9278 37.955C16.5077 37.9026 17.0629 37.6955 17.5354 37.3553C18.0079 37.0151 18.3805 36.5543 18.6142 36.021L23.8668 24.0407C24.3388 23.1098 25.6625 23.1131 26.1292 24.0366L31.3819 36.0171C31.3819 36.0171 31.3819 36.0171 31.3819 36.0172C31.6156 36.5504 31.9881 37.0112 32.4606 37.3514C32.9332 37.6916 33.4884 37.8987 34.0682 37.9511Z" fill="#FDD835" stroke="#F4B400"/>
<path d="M26.1992 36.5352L25.3086 27.6992C25.2734 27.207 25.1719 26.3633 25.9609 26.3633C26.5859 26.3633 26.9258 27.6641 26.9258 27.6641L29.5977 34.7578C30.6055 37.457 30.1914 38.3828 29.2187 38.9297C28.1016 39.5547 26.4531 39.0664 26.1992 36.5352Z" fill="#FFFF8D"/>
<path d="M37.2187 48.9336L44.8828 42.9531C45.2617 42.6367 45.9453 42.1328 45.3984 41.5586C44.9648 41.1055 43.793 41.7578 43.793 41.7578L37.0859 44.3789C35.0859 45.0703 33.7578 46.0937 33.6406 47.3828C33.4883 49.1016 35.0312 50.4258 37.2187 48.9336Z" fill="#F4B400"/>
<path d="M79.7135 23.5323L79.7139 23.5324L97.6315 25.1389C99.2351 25.3823 99.8754 27.3458 98.7214 28.4882L85.2283 39.8234C83.9936 40.8606 83.4306 42.4918 83.7705 44.0684C83.7705 44.0685 83.7706 44.0686 83.7706 44.0687L87.6947 62.4375C87.9608 64.0403 86.2835 65.2608 84.8409 64.5095L69.1999 55.35C68.5329 54.9585 67.7734 54.7521 67 54.7521C66.2265 54.7521 65.4671 54.9585 64.8 55.35L49.1593 64.5038C47.72 65.2511 46.0396 64.0326 46.3053 62.4321L50.2296 44.0623L50.2297 44.0614C50.5631 42.4874 50.0076 40.8562 48.7716 39.8179L48.7713 39.8177L35.273 28.4936C34.1246 27.3565 34.7649 25.3877 36.3631 25.1444L54.2806 23.5378L54.2809 23.5378C55.0571 23.4676 55.8002 23.1904 56.4327 22.7351C57.0652 22.2797 57.5639 21.6629 57.8767 20.9491L65.2325 4.17173C65.9656 2.71612 68.0356 2.7195 68.7618 4.16593L76.1178 20.9436C76.4306 21.6575 76.9293 22.2742 77.5617 22.7296C78.1942 23.1849 78.9374 23.4622 79.7135 23.5323Z" fill="#FDD835" stroke="#F4B400"/>
<path d="M68.6789 21.7492L67.432 9.37886C67.3828 8.68979 67.2406 7.50854 68.3453 7.50854C69.2203 7.50854 69.6961 9.32964 69.6961 9.32964L73.4367 19.2609C74.8477 23.0398 74.268 24.3359 72.9062 25.1015C71.3422 25.9765 69.0344 25.2929 68.6789 21.7492Z" fill="#FFFF8D"/>
<path d="M84.1063 39.1071L94.836 30.7344C95.3664 30.2915 96.3235 29.586 95.5578 28.7821C94.9508 28.1477 93.3102 29.061 93.3102 29.061L83.9203 32.7305C81.1203 33.6985 79.261 35.1313 79.0969 36.936C78.8836 39.3422 81.0438 41.1961 84.1063 39.1071Z" fill="#F4B400"/>
</svg>
