<svg width="50" height="50" viewBox="0 0 50 50" fill="#FFD166" xmlns="http://www.w3.org/2000/svg">
<path d="M45 25C45 30.3043 42.8929 35.3914 39.1421 39.1421C35.3914 42.8929 30.3043 45 25 45C19.6957 45 14.6086 42.8929 10.8579 39.1421C7.10714 35.3914 5 30.3043 5 25C5 19.6957 7.10714 14.6086 10.8579 10.8579C14.6086 7.10714 19.6957 5 25 5C30.3043 5 35.3914 7.10714 39.1421 10.8579C42.8929 14.6086 45 19.6957 45 25ZM21.975 17.7325C21.7881 17.5994 21.5682 17.5204 21.3393 17.504C21.1104 17.4876 20.8815 17.5345 20.6775 17.6396C20.4736 17.7447 20.3024 17.9038 20.1829 18.0997C20.0634 18.2956 20.0001 18.5206 20 18.75V31.25C20.0001 31.4794 20.0634 31.7044 20.1829 31.9003C20.3024 32.0962 20.4736 32.2553 20.6775 32.3604C20.8815 32.4655 21.1104 32.5124 21.3393 32.496C21.5682 32.4796 21.7881 32.4006 21.975 32.2675L30.725 26.0175C30.887 25.9019 31.0191 25.7492 31.1102 25.5722C31.2014 25.3953 31.2489 25.1991 31.2489 25C31.2489 24.8009 31.2014 24.6047 31.1102 24.4278C31.0191 24.2508 30.887 24.0981 30.725 23.9825L21.975 17.7325Z" fill="#FFD166"/>
</svg>
