<svg width="100" height="100" viewBox="0 0 100 100" fill="none" xmlns="http://www.w3.org/2000/svg">
<path d="M12.1563 94.2109C11.9766 93.8906 11.7891 93.5781 11.6641 93.25C11.0391 91.6641 10.9766 90.4922 9.39846 89.8359C8.60158 89.5 6.85158 88.9922 6.02346 88.7422C4.54689 88.3047 3.32814 87.0703 2.92189 85.5781C2.51564 84.0859 2.93752 82.4063 3.99221 81.2813C5.61721 79.5469 8.24221 79.3594 10.6016 79.0938C17.0469 78.3516 21.7656 71.5234 26.0703 67.2188L34.6485 58.6406L41.3985 65.3906L33.1016 73.6875C28.8047 77.9844 21.375 82.8203 21.5938 89.5469C21.6328 90.8047 21.8985 92.1016 21.5 93.2969C20.961 94.9219 19.3203 95.9297 17.7031 96.5C16.8594 96.7969 15.9453 97.0156 15.0703 96.8281C13.75 96.5391 12.8438 95.4297 12.1563 94.2109Z" fill="#C8DEE9"/>
<path d="M11.2813 86.3515C12.9766 86.5312 13.0938 88.6406 12.6719 90.539C12.5235 91.2031 12.1719 91.914 11.6016 92.164C11.0782 92.3906 11.0157 90.9375 9.88284 90.125C9.51566 89.8593 6.64066 89.3125 4.92191 88.2578C4.43753 87.9609 4.54691 87.2343 5.10941 87.1171C7.00003 86.7265 10.5235 86.2656 11.2813 86.3515Z" fill="#8ABFD1"/>
<path d="M20.1953 73.4688C20.3828 73.2813 22.5 73.4063 23.3906 74.9844C23.9688 76.0078 24.25 77.2109 24.1094 78.3594C23.9141 79.9297 23.2187 81.3828 22.5859 82.8203C21.2812 85.7813 21.6875 87.6328 21.7187 87.75C22.7031 81.9375 29.2031 77.5859 33.1094 73.6797L41.4062 65.3828L34.0625 58.5C33 59.5703 21.3125 72.3594 20.1953 73.4688Z" fill="#8ABFD1"/>
<path d="M21.4219 70.8359C21.3828 70.875 21.3438 70.9219 21.3047 70.9609L21.2734 71.0625C21.3203 70.9844 21.375 70.9141 21.4219 70.8359Z" fill="#A5C7D3"/>
<path d="M87.8438 94.2109C88.0234 93.8906 88.1875 93.5703 88.3359 93.25C89.0703 91.7031 89.875 89.9922 91.4531 89.3281C92.25 88.9922 93.1484 88.9922 93.9766 88.7422C95.4531 88.3047 96.6719 87.0703 97.0781 85.5781C97.4844 84.0859 97.0625 82.4063 96.0078 81.2813C94.3828 79.5469 91.7578 79.3594 89.3984 79.0938C82.9531 78.3516 78.2344 71.5234 73.9297 67.2188L65.3516 58.6406L58.6016 65.3906L66.8984 73.6875C71.1953 77.9844 78.625 82.8203 78.4062 89.5469C78.3672 90.8047 78.1016 92.1016 78.5 93.2969C79.0391 94.9219 80.6797 95.9297 82.2969 96.5C83.1406 96.7969 84.0547 97.0156 84.9297 96.8281C86.25 96.5391 87.1563 95.4297 87.8438 94.2109Z" fill="#C8DEE9"/>
<path d="M79.8047 73.4688C79.6172 73.2813 77.5 73.4063 76.6094 74.9844C76.0312 76.0078 75.75 77.2109 75.8906 78.3594C76.0859 79.9297 76.7812 81.3828 77.4141 82.8203C78.7187 85.7813 78.3125 87.6328 78.2812 87.75C77.2969 81.9375 70.7969 77.5859 66.8906 73.6797C66.4219 73.2187 58.6016 65.3906 58.6016 65.3906L65.9453 58.5078C67 59.5703 78.6875 72.3594 79.8047 73.4688Z" fill="#8ABFD1"/>
<path d="M78.5781 70.8359C78.6172 70.875 78.6563 70.9219 78.6953 70.9609L78.7266 71.0625C78.6797 70.9844 78.625 70.9141 78.5781 70.8359Z" fill="#A5C7D3"/>
<path d="M88.8438 86.3515C87.1485 86.5312 87.0313 88.6406 87.4532 90.539C87.6016 91.2031 87.9532 91.914 88.5235 92.164C89.0469 92.3906 89.1094 90.9375 90.2422 90.125C90.6094 89.8593 93.4844 89.3125 95.2032 88.2578C95.6876 87.9609 95.5782 87.2343 95.0157 87.1171C93.1251 86.7265 89.6016 86.2656 88.8438 86.3515Z" fill="#8ABFD1"/>
<path d="M12.1563 5.78912C11.9766 6.10943 11.8125 6.42974 11.6641 6.75006C10.9297 8.29693 10.125 10.0079 8.54689 10.6719C7.75002 11.0079 6.85158 11.0079 6.02346 11.2579C4.54689 11.6954 3.32814 12.9297 2.92189 14.4219C2.51564 15.9063 2.93752 17.5938 3.99221 18.7188C5.61721 20.4532 8.24221 20.6407 10.6016 20.9063C17.0469 21.6485 21.7656 28.4766 26.0703 32.7813L34.6485 41.3594L41.3985 34.6094L33.1016 26.3126C28.8047 22.0157 21.375 17.1797 21.5938 10.4532C21.6328 9.19537 21.8985 7.89849 21.5 6.70318C20.961 5.07818 19.3203 4.07037 17.7031 3.50006C16.8594 3.20318 15.9453 2.98443 15.0703 3.17193C13.75 3.46099 12.8438 4.57037 12.1563 5.78912Z" fill="#C8DEE9"/>
<path d="M21.4219 29.1641C21.3828 29.125 21.3438 29.0781 21.3047 29.0391L21.2734 28.9375C21.3203 29.0156 21.375 29.0859 21.4219 29.1641Z" fill="#A5C7D3"/>
<path d="M6.1641 17.6094C10.0157 17.6875 10.9688 17.0234 11.961 16.6641C15.1485 15.5234 16 17.6406 15.1094 19.3281C14.0157 21.4063 9.6016 21.2969 6.34378 20.125C5.64847 19.875 3.84378 19.0703 3.62503 18.2188C3.28128 16.8828 5.60941 17.5938 6.1641 17.6094Z" fill="#8ABFD1"/>
<path d="M41.3984 34.6094C41.3984 34.6094 30.3906 24.2734 28.0469 21.7578C23.3047 22.2344 20.7344 25.2266 20.3359 26.7266C22.8516 29.0625 31.7891 38.5 34.6484 41.3594L41.3984 34.6094Z" fill="#8ABFD1"/>
<path d="M87.8438 5.78912C88.0234 6.10943 88.1875 6.42974 88.3359 6.75006C89.0703 8.29693 89.875 10.0079 91.4531 10.6719C92.25 11.0079 93.1484 11.0079 93.9766 11.2579C95.4531 11.6954 96.6719 12.9297 97.0781 14.4219C97.4844 15.9063 97.0625 17.5938 96.0078 18.7188C94.3828 20.4532 91.7578 20.6407 89.3984 20.9063C82.9531 21.6485 78.2344 28.4766 73.9297 32.7813L65.3516 41.3594L58.6016 34.6094L66.8984 26.3126C71.1953 22.0157 78.625 17.1797 78.4062 10.4532C78.3672 9.19537 78.1016 7.89849 78.5 6.70318C79.0391 5.07818 80.6797 4.07037 82.2969 3.50006C83.1406 3.20318 84.0547 2.98443 84.9297 3.17193C86.25 3.46099 87.1563 4.57037 87.8438 5.78912Z" fill="#C8DEE9"/>
<path d="M78.5781 29.1641C78.6172 29.125 78.6563 29.0781 78.6953 29.0391L78.7266 28.9375C78.6797 29.0156 78.625 29.0859 78.5781 29.1641Z" fill="#A5C7D3"/>
<path d="M93.8359 17.5234C89.9844 17.6016 89.0312 16.9375 88.0391 16.5781C84.8516 15.4375 84 17.5547 84.8906 19.2422C85.9844 21.3203 90.3984 21.2109 93.6562 20.0391C94.3516 19.7891 96.1562 18.9844 96.375 18.1328C96.7187 16.8047 94.3906 17.5156 93.8359 17.5234Z" fill="#8ABFD1"/>
<path d="M58.6016 34.6094C58.6016 34.6094 70.5937 23.3906 72.9375 20.875C79.1953 22.2344 80.2812 26.0547 80.2812 26.0547C80.2812 26.0547 68.2188 38.4922 65.3594 41.3516C65.3516 41.3594 58.6016 34.6094 58.6016 34.6094Z" fill="#8ABFD1"/>
<path d="M77.8985 53.5C78.2266 51.5234 79.5938 42.7344 78.3516 35.8281C77.5547 31.4297 75.3985 28.0234 72.3282 25.1172C66.4141 19.5156 58.3594 16.8906 50.6641 16.6641C50.625 16.6563 50.5782 16.6563 50.5391 16.6563C50.5 16.6563 50.4532 16.6484 50.4141 16.6484C50.3438 16.6484 50.2735 16.6563 50.211 16.6563C50.1407 16.6563 50.0704 16.6484 50.0079 16.6484C49.9688 16.6484 49.9219 16.6563 49.8829 16.6563C49.8438 16.6563 49.7969 16.6484 49.7579 16.6641C42.0625 16.8906 34.0079 19.5156 28.0938 25.1172C25.0313 28.0234 22.8672 31.4297 22.0704 35.8281C20.8204 42.7344 22.1954 51.5234 22.5235 53.5C22.9688 56.1953 21.7891 59.1719 21.5547 61.8594C21.3047 64.7813 22.6797 67.0469 25.1485 68.6484C27.211 69.9844 29.6016 70.6953 31.8282 71.7344C34.4766 72.9688 32.0704 77.4219 33.0469 79.6719C33.5391 80.8125 34.6172 81.5859 35.7266 82.1406C37.1407 82.8438 38.7735 83.2891 40.3047 82.8984C40.0704 82.9609 40.7422 84.3047 41.6329 84.8516C42.4375 85.3516 43.4454 85.8594 44.375 86.0625C46.2344 86.4688 48.0704 85.7891 49.211 85.1953C49.836 84.875 50.5704 84.875 51.1875 85.1953C52.336 85.7891 54.1719 86.4766 56.0235 86.0625C57.4219 85.7578 58.6641 84.9297 59.5547 83.8438C59.9688 83.3359 60.6172 83.0547 61.2735 83.1016C63.2188 83.2266 66.1954 82.4375 67.4922 79.5C68.211 77.8672 67.4844 75.9453 67.9688 74.2344C68.7813 71.3359 71.6329 70.6172 73.9297 69.2734C76.9688 67.4844 78.7657 65.4922 78.8516 62.6719C78.9688 59.6719 77.5157 55.8125 77.8985 53.5Z" fill="#E1E7EA"/>
<path d="M43.2408 53.5015C44.3719 49.2796 42.1772 45.0234 38.3388 43.9949C34.5003 42.9665 30.4716 45.5553 29.3404 49.7772C28.2092 53.9991 30.4039 58.2553 34.2424 59.2838C38.0809 60.3122 42.1096 57.7234 43.2408 53.5015Z" fill="#424242"/>
<path d="M66.1889 59.2868C70.0273 58.2584 72.222 54.0021 71.0908 49.7802C69.9597 45.5583 65.931 42.9695 62.0925 43.9979C58.254 45.0264 56.0593 49.2826 57.1905 53.5045C58.3217 57.7264 62.3504 60.3153 66.1889 59.2868Z" fill="#424242"/>
<path d="M45.5938 64.625C45.5938 62.0703 47.6641 55.75 50.2187 55.75C52.7734 55.75 54.8437 62.0703 54.8437 64.625C54.8437 69.8125 50.2187 66.2812 50.2187 66.2812C50.2187 66.2812 45.5938 70.1172 45.5938 64.625Z" fill="#424242"/>
<path d="M38.9922 83.0469C38.9297 82.5234 39.0625 77.1953 39.0625 76.25C39.0625 75.5781 39.6016 75.0391 40.2734 75.0391C40.9453 75.0391 41.4844 75.5859 41.4844 76.25C41.4844 77.0859 41.1562 83.0703 41.1562 83.0703C41.1562 83.0703 40.0625 83.3516 38.9922 83.0469Z" fill="#8ABFD1"/>
<path d="M49.0156 85.3672C49.0156 85.3672 49.0234 84.5469 49.0234 84.125V76.25C49.0234 75.5781 49.5625 75.0391 50.2344 75.0391C50.9063 75.0391 51.4453 75.5859 51.4453 76.25V80.5156C51.4453 81.3828 51.3984 85.3672 51.3984 85.3672C49.5234 84.6641 49.0156 85.3672 49.0156 85.3672Z" fill="#8ABFD1"/>
<path d="M59.1406 83.7344C59.1406 83.7344 59.0234 77.2656 59.0234 76.25C59.0234 75.5781 59.5703 75.0391 60.2344 75.0391C60.9062 75.0391 61.4453 75.5859 61.4453 76.25C61.4453 77.3359 61.4375 83.1094 61.4375 83.1094C61.4375 83.1094 60.7969 83.0781 60.3047 83.1641C60.0937 83.1875 59.1406 83.7344 59.1406 83.7344Z" fill="#8ABFD1"/>
<path d="M50.211 82.3203C49.6173 82.3672 49.0235 82.4375 49.0157 82.5078C48.836 84.5625 45.8517 84.6953 44.3282 84.3672C43.4454 84.1719 42.4532 83.875 41.9142 83.1172C41.4063 82.4141 41.1798 81.5234 41.1876 80.6641C41.1876 80.6172 38.9845 80.3828 38.9845 80.3828C38.9845 80.3828 38.836 81.5938 37.3438 81.4766C34.8907 81.2813 34.4063 80.4922 33.8829 79.625C33.2267 78.5313 32.9923 76.1094 32.9923 76.1094C31.961 80.4687 34.1485 82.0781 35.2345 82.6719C37.2657 83.7813 39.8282 83.1953 39.8282 83.1953C39.8282 83.1953 40.8517 84.8281 41.7345 85.375C42.5392 85.875 43.3907 86.125 44.3204 86.3281C46.1798 86.7344 48.0157 86.0547 49.1563 85.4609C49.4845 85.2891 49.8438 85.2187 50.1954 85.2266V82.3203H50.211Z" fill="#8ABFD1"/>
<path d="M50.2109 82.3203C50.8047 82.3672 51.3984 82.4375 51.4063 82.5078C51.5859 84.5625 54.5703 84.6953 56.0938 84.3672C56.9766 84.1719 57.9688 83.875 58.5078 83.1172C59.0156 82.4141 59.2422 81.5234 59.2344 80.6641C59.2344 80.6172 61.4375 80.3828 61.4375 80.3828C61.4375 80.3828 61.5859 81.5938 63.0781 81.4766C65.5313 81.2813 66.0156 80.4922 66.5391 79.625C67.1953 78.5313 67.8203 76.1094 67.8203 76.1094C68.5547 80.5547 66.2734 82.0781 65.1875 82.6719C63.1563 83.7813 60.5938 83.1953 60.5938 83.1953C60.5938 83.1953 59.5703 84.8281 58.6875 85.375C57.8828 85.875 57.0313 86.125 56.1016 86.3281C54.2422 86.7344 52.4063 86.0547 51.2656 85.4609C50.9375 85.2891 50.5781 85.2187 50.2266 85.2266V82.3203H50.2109Z" fill="#8ABFD1"/>
</svg>
