<svg width="142" height="70" viewBox="0 0 142 70" fill="none" xmlns="http://www.w3.org/2000/svg">
<path d="M26.2227 60.9821L46.7415 61.0094L68.4907 52.1501C68.4907 52.1501 68.6329 45.2649 68.2118 38.1391C67.7907 31.0133 65.8165 20.1797 65.8165 20.1797C65.8165 20.1797 65.9368 18.2001 65.6962 17.1282C65.4665 16.111 64.854 15.2852 63.1532 15.1868C61.5946 15.0938 26.447 15.1868 25.4899 15.3071C24.5329 15.4274 18.7634 22.4001 18.7634 22.4001C18.7634 22.4001 10.6259 35.8641 10.3907 36.1649C10.1501 36.4657 4.83445 40.0477 3.9868 41.136C3.10086 42.2735 3.16102 43.2032 3.16102 43.2032L3.19383 52.4071L26.2227 60.9821Z" fill="#E1E1E1"/>
<path d="M68.4962 52.1445C68.4962 52.1445 56.6181 52.0351 54.1626 52.5492C51.7071 53.0633 50.0556 54.5289 48.6665 56.7656C47.272 59.0023 46.7251 61.0203 46.7251 61.0203C46.7251 61.0203 66.1173 60.982 66.7735 61.0203C67.4298 61.0586 68.3157 60.0305 68.3868 58.6359C68.4634 57.2414 68.4962 52.1445 68.4962 52.1445Z" fill="#516C73"/>
<path d="M26.2336 60.9765C26.2336 60.9765 24.5493 56.946 22.7883 55.1468C21.0274 53.3476 18.4626 52.139 15.3836 52.0296C12.3047 51.9202 3.20474 51.8491 3.20474 51.8491C3.20474 51.8491 1.15943 53.5335 1.01177 55.9124C0.864115 58.2968 1.01177 60.5663 2.92037 60.714C4.82896 60.8616 26.2336 60.9765 26.2336 60.9765Z" fill="#516C73"/>
<path d="M8.4656 61.496C8.50935 64.0828 10.5711 67.8125 15.0664 67.8398C19.5617 67.8671 21.8914 64.4273 21.7492 60.9C21.607 57.3125 18.8179 54.7859 14.8094 54.8953C11.0523 55.0046 8.40545 57.914 8.4656 61.496Z" fill="#4E433D"/>
<path d="M11.6757 61.343C11.6976 62.7102 12.7804 64.6735 15.1429 64.6899C17.5054 64.7063 18.6538 62.9946 18.5773 61.1352C18.5007 59.243 16.9913 57.8376 15.0062 57.8649C13.0374 57.8922 11.6483 59.4563 11.6757 61.343Z" fill="#C8C8C8"/>
<path d="M51.368 61.1899C51.4118 63.7766 53.4735 67.5063 57.9688 67.5336C62.4641 67.561 64.7938 64.1211 64.6516 60.5938C64.5094 57.0063 61.7204 54.4797 57.7118 54.5891C53.9602 54.693 51.3133 57.6024 51.368 61.1899Z" fill="#4E433D"/>
<path d="M54.5836 61.0366C54.6054 62.4038 55.6883 64.3671 58.0508 64.3835C60.4133 64.3999 61.5617 62.6882 61.4851 60.8288C61.4086 58.9366 59.8992 57.5312 57.914 57.5585C55.9453 57.5858 54.5508 59.1444 54.5836 61.0366Z" fill="#C8C8C8"/>
<path d="M3.18291 49.6891L68.5181 49.9461C68.5181 49.9461 68.529 48.7867 68.529 47.2555C68.529 45.7461 68.4743 44.6141 68.4743 44.6141L3.13916 44.5977L3.18291 49.6891Z" fill="#D70617"/>
<path d="M3.14993 43.1868C3.14993 43.1868 9.8054 43.1594 10.1663 43.1594C10.5273 43.1594 10.8116 43.4383 10.8116 43.9141C10.8116 44.3899 11.0085 46.1508 9.58118 47.4633C8.96868 48.0266 7.64524 48.1469 6.3929 48.1633C4.51712 48.1852 3.31946 48.1961 3.16634 48.1961C3.16634 48.1961 3.0843 44.4719 3.09524 44.018C3.11712 43.4875 3.14993 43.1868 3.14993 43.1868Z" fill="#FFE365"/>
<path d="M18.6211 22.6406L66.2484 22.6297L66.057 21.3937C65.9477 20.6883 65.8219 20.1851 65.8219 20.1851L25.4461 20.2344L25.4953 15.3015C25.4953 15.3015 24.5164 15.1867 24.0023 15.6679C23.275 16.3515 21.968 17.7242 20.7047 19.3812C19.7148 20.6773 18.6211 22.6406 18.6211 22.6406Z" fill="#C9C9C9"/>
<path d="M20.4094 17.4234C19.1516 18.8289 19.507 21.1367 19.507 21.1367C19.507 21.1367 23.5977 21.2679 23.7399 21.0382C23.882 20.814 23.8219 15.8648 23.8219 15.8648C23.8219 15.8648 22.1102 15.5148 20.4094 17.4234Z" fill="#FA2B23"/>
<path d="M25.4954 15.318C25.7196 15.2907 38.5001 15.2086 38.5001 15.2086C38.5001 15.2086 38.5 13.0157 38.4782 12.2227C38.4508 11.1453 37.5977 10.325 36.0446 10.2703C34.9563 10.2321 28.7657 10.1828 27.7758 10.243C26.786 10.2977 25.654 11.1235 25.5938 12.3649C25.5336 13.6063 25.4954 15.318 25.4954 15.318Z" fill="#DD0F26"/>
<path d="M30.3078 12.6875L31.0297 14.2625L29.3016 14.2352C29.3016 14.2352 27.9727 12.9609 27.9727 12.6766C27.9727 12.3922 29.4437 11.2875 29.4437 11.2875L31.2648 11.2656L30.3078 12.6875Z" fill="#FF5B5E"/>
<path d="M33.3977 12.7203L32.7578 14.3062L34.1961 14.2953C34.1961 14.2953 35.6727 13.0266 35.6891 12.7805C35.7109 12.425 34.207 11.2711 34.207 11.2711L32.5938 11.2656L33.3977 12.7203Z" fill="#FF5B5E"/>
<path d="M49.6453 24.4399C49.5304 25.3587 49.4539 33.3376 49.4539 33.3376L49.4921 41.5079L53.5773 41.4313L53.807 33.0696L53.6539 24.5165L49.6453 24.4399Z" fill="#1E86FE"/>
<path d="M43.6243 35.678L50.493 30.9804L57.5969 26.4741L59.8118 29.7554L52.7844 34.6444L45.686 39.0358L43.6243 35.678Z" fill="#1E86FE"/>
<path d="M45.4562 26.6274L43.3179 29.8321L50.1101 34.836L57.1374 39.1892L59.3905 35.979L52.2866 30.9806L45.4562 26.6274Z" fill="#1E86FE"/>
<path d="M20.8305 25.0251C20.0703 25.0962 19.343 25.3313 18.7687 26.2063C18.1945 27.0868 13.2344 36.0556 12.7367 36.8978C12.4687 37.3517 12.1515 38.0571 12.2719 38.6095C12.3758 39.0743 12.857 39.4243 13.382 39.4571C14.525 39.5337 29.1101 39.4188 29.914 39.4188C30.718 39.4188 31.4015 38.7298 31.4398 37.5103C31.4781 36.2907 31.5383 27.4259 31.4398 26.4743C31.325 25.3696 30.5976 25.0251 29.6844 24.9868C28.8422 24.9485 21.6289 24.9485 20.8305 25.0251Z" fill="#557077"/>
<path d="M21.711 27.3657C20.9617 27.3766 20.3821 27.6227 19.8078 28.5797C19.4742 29.1375 15.493 36.3672 15.3782 36.7118C15.2633 37.0563 15.5313 37.3625 16.1055 37.3625C16.6797 37.3625 27.7102 37.286 28.3992 37.286C29.0883 37.286 29.4328 36.7883 29.4657 35.7602C29.5039 34.7266 29.4657 29.0008 29.4657 28.3938C29.4657 27.7868 29.1594 27.3602 28.361 27.3602C27.5625 27.3547 22.4 27.3493 21.711 27.3657Z" fill="#AFE3FB"/>
<path d="M102.484 67.8125H41.7211C40.3812 67.8125 39.293 66.7242 39.293 65.3844V4.61562C39.293 3.27578 40.3812 2.1875 41.7211 2.1875H102.484C103.824 2.1875 104.912 3.27578 104.912 4.61562V65.3844C104.912 66.7242 103.824 67.8125 102.484 67.8125Z" fill="#E0E0E0"/>
<path d="M58.7836 9.79448H40.332C40.0565 9.79448 39.7922 9.68501 39.5973 9.49015C39.4024 9.29529 39.293 9.031 39.293 8.75542V3.9812C39.293 3.40698 39.7578 2.94214 40.332 2.94214H58.7836C59.3578 2.94214 59.8227 3.40698 59.8227 3.9812V8.74995C59.8227 9.32417 59.3578 9.79448 58.7836 9.79448Z" fill="#751C00"/>
<path d="M81.3257 9.79448H62.8796C62.6041 9.79448 62.3398 9.68501 62.1449 9.49015C61.95 9.29529 61.8406 9.031 61.8406 8.75542V3.9812C61.8406 3.40698 62.3054 2.94214 62.8796 2.94214H81.3312C81.9054 2.94214 82.3703 3.40698 82.3703 3.9812V8.74995C82.3684 9.0264 82.2578 9.291 82.0623 9.48649C81.8668 9.68197 81.6022 9.79262 81.3257 9.79448Z" fill="#751C00"/>
<path d="M103.873 9.79448H85.4219C85.1463 9.79448 84.882 9.68501 84.6871 9.49015C84.4923 9.29529 84.3828 9.031 84.3828 8.75542V3.9812C84.3828 3.40698 84.8477 2.94214 85.4219 2.94214H103.873C104.448 2.94214 104.913 3.40698 104.913 3.9812V8.74995C104.913 9.32417 104.448 9.79448 103.873 9.79448Z" fill="#751C00"/>
<path d="M58.7836 29.132H40.332C40.0565 29.132 39.7922 29.0226 39.5973 28.8277C39.4024 28.6328 39.293 28.3685 39.293 28.093V23.3242C39.293 22.75 39.7578 22.2852 40.332 22.2852H58.7836C59.3578 22.2852 59.8227 22.75 59.8227 23.3242V28.093C59.8227 28.3685 59.7132 28.6328 59.5183 28.8277C59.3235 29.0226 59.0592 29.132 58.7836 29.132Z" fill="#751C00"/>
<path d="M81.3257 29.132H62.8796C62.6041 29.132 62.3398 29.0226 62.1449 28.8277C61.95 28.6328 61.8406 28.3685 61.8406 28.093V23.3242C61.8406 22.75 62.3054 22.2852 62.8796 22.2852H81.3312C81.9054 22.2852 82.3703 22.75 82.3703 23.3242V28.093C82.3648 28.6672 81.9 29.132 81.3257 29.132Z" fill="#751C00"/>
<path d="M103.873 29.132H85.4219C85.1463 29.132 84.882 29.0226 84.6871 28.8277C84.4923 28.6328 84.3828 28.3685 84.3828 28.093V23.3242C84.3828 22.75 84.8477 22.2852 85.4219 22.2852H103.873C104.448 22.2852 104.913 22.75 104.913 23.3242V28.093C104.913 28.3685 104.803 28.6328 104.608 28.8277C104.413 29.0226 104.149 29.132 103.873 29.132Z" fill="#751C00"/>
<path d="M58.7836 48.475H40.332C40.0565 48.475 39.7922 48.3656 39.5973 48.1707C39.4024 47.9759 39.293 47.7116 39.293 47.436V42.6672C39.293 42.093 39.7578 41.6282 40.332 41.6282H58.7836C59.3578 41.6282 59.8227 42.093 59.8227 42.6672V47.436C59.8227 48.0047 59.3578 48.475 58.7836 48.475Z" fill="#751C00"/>
<path d="M81.3257 48.475H62.8796C62.6041 48.475 62.3398 48.3656 62.1449 48.1707C61.95 47.9759 61.8406 47.7116 61.8406 47.436V42.6672C61.8406 42.093 62.3054 41.6282 62.8796 41.6282H81.3312C81.9054 41.6282 82.3703 42.093 82.3703 42.6672V47.436C82.3674 47.7116 82.2563 47.9751 82.0608 48.1695C81.8654 48.3639 81.6014 48.4736 81.3257 48.475Z" fill="#751C00"/>
<path d="M103.873 48.475H85.4219C85.1463 48.475 84.882 48.3656 84.6871 48.1707C84.4923 47.9759 84.3828 47.7116 84.3828 47.436V42.6672C84.3828 42.093 84.8477 41.6282 85.4219 41.6282H103.873C104.448 41.6282 104.913 42.093 104.913 42.6672V47.436C104.913 48.0047 104.448 48.475 103.873 48.475Z" fill="#751C00"/>
<path d="M58.7836 67.8124H40.332C40.0565 67.8124 39.7922 67.703 39.5973 67.5081C39.4024 67.3133 39.293 67.049 39.293 66.7734V62.0046C39.293 61.4304 39.7578 60.9656 40.332 60.9656H58.7836C59.3578 60.9656 59.8227 61.4304 59.8227 62.0046V66.7734C59.8227 67.049 59.7132 67.3133 59.5183 67.5081C59.3235 67.703 59.0592 67.8124 58.7836 67.8124Z" fill="#751C00"/>
<path d="M81.3257 67.8124H62.8796C62.6041 67.8124 62.3398 67.703 62.1449 67.5081C61.95 67.3133 61.8406 67.049 61.8406 66.7734V62.0046C61.8406 61.4304 62.3054 60.9656 62.8796 60.9656H81.3312C81.9054 60.9656 82.3703 61.4304 82.3703 62.0046V66.7734C82.3648 67.3476 81.9 67.8124 81.3257 67.8124Z" fill="#751C00"/>
<path d="M103.873 67.8124H85.4219C85.1463 67.8124 84.882 67.703 84.6871 67.5081C84.4923 67.3133 84.3828 67.049 84.3828 66.7734V62.0046C84.3828 61.4304 84.8477 60.9656 85.4219 60.9656H103.873C104.448 60.9656 104.913 61.4304 104.913 62.0046V66.7734C104.913 67.049 104.803 67.3133 104.608 67.5081C104.413 67.703 104.149 67.8124 103.873 67.8124Z" fill="#751C00"/>
<path d="M47.7751 12.6108H39.2876V19.4632H47.7751C48.0507 19.4632 48.315 19.3537 48.5098 19.1589C48.7047 18.964 48.8142 18.6997 48.8142 18.4241V13.6554C48.8142 13.0757 48.3493 12.6108 47.7751 12.6108Z" fill="#751C00"/>
<path d="M70.1424 19.4631H51.6963C51.4207 19.4631 51.1564 19.3536 50.9616 19.1588C50.7667 18.9639 50.6572 18.6996 50.6572 18.424V13.6553C50.6572 13.0811 51.1221 12.6162 51.6963 12.6162H70.1479C70.7221 12.6162 71.1869 13.0811 71.1869 13.6553V18.424C71.1814 18.9982 70.7166 19.4631 70.1424 19.4631Z" fill="#751C00"/>
<path d="M92.5096 19.4631H74.0635C73.927 19.4631 73.7919 19.4362 73.6658 19.384C73.5398 19.3318 73.4252 19.2552 73.3287 19.1588C73.2323 19.0623 73.1557 18.9477 73.1035 18.8217C73.0513 18.6956 73.0244 18.5605 73.0244 18.424V13.6553C73.0244 13.0811 73.4893 12.6162 74.0635 12.6162H92.515C93.0893 12.6162 93.5541 13.0811 93.5541 13.6553V18.424C93.5486 18.9982 93.0838 19.4631 92.5096 19.4631Z" fill="#751C00"/>
<path d="M96.4307 12.6108C96.1551 12.6108 95.8908 12.7203 95.6959 12.9152C95.5011 13.11 95.3916 13.3743 95.3916 13.6499V18.4187C95.3916 18.9929 95.8564 19.4577 96.4307 19.4577H104.913V12.6108H96.4307Z" fill="#751C00"/>
<path d="M47.7751 31.9539H39.2876V38.8062H47.7751C48.0507 38.8062 48.315 38.6967 48.5098 38.5019C48.7047 38.307 48.8142 38.0427 48.8142 37.7671V32.9984C48.8142 32.4187 48.3493 31.9539 47.7751 31.9539Z" fill="#751C00"/>
<path d="M70.1424 38.8007H51.6963C51.4207 38.8007 51.1564 38.6913 50.9616 38.4964C50.7667 38.3015 50.6572 38.0372 50.6572 37.7617V32.9929C50.6572 32.4187 51.1221 31.9539 51.6963 31.9539H70.1479C70.7221 31.9539 71.1869 32.4187 71.1869 32.9929V37.7617C71.1814 38.3359 70.7166 38.8007 70.1424 38.8007Z" fill="#751C00"/>
<path d="M92.5096 38.8007H74.0635C73.927 38.8007 73.7919 38.7739 73.6658 38.7216C73.5398 38.6694 73.4252 38.5929 73.3287 38.4964C73.2323 38.3999 73.1557 38.2854 73.1035 38.1593C73.0513 38.0332 73.0244 37.8981 73.0244 37.7617V32.9929C73.0244 32.4187 73.4893 31.9539 74.0635 31.9539H92.515C93.0893 31.9539 93.5541 32.4187 93.5541 32.9929V37.7617C93.5486 38.3359 93.0838 38.8007 92.5096 38.8007Z" fill="#751C00"/>
<path d="M96.4307 31.9539C96.1551 31.9539 95.8908 32.0633 95.6959 32.2582C95.5011 32.4531 95.3916 32.7173 95.3916 32.9929V37.7617C95.3916 38.3359 95.8564 38.8007 96.4307 38.8007H104.913V31.9539H96.4307Z" fill="#751C00"/>
<path d="M47.7751 51.2915H39.2876V58.1438H47.7751C47.9115 58.1438 48.0467 58.117 48.1727 58.0648C48.2988 58.0125 48.4133 57.936 48.5098 57.8395C48.6063 57.743 48.6828 57.6285 48.7351 57.5024C48.7873 57.3763 48.8142 57.2412 48.8142 57.1048V52.336C48.8142 51.7563 48.3493 51.2915 47.7751 51.2915Z" fill="#751C00"/>
<path d="M70.1424 58.1437H51.6963C51.4207 58.1437 51.1564 58.0343 50.9616 57.8394C50.7667 57.6446 50.6572 57.3803 50.6572 57.1047V52.3359C50.6572 51.7617 51.1221 51.2969 51.6963 51.2969H70.1479C70.7221 51.2969 71.1869 51.7617 71.1869 52.3359V57.1047C71.1814 57.6789 70.7166 58.1437 70.1424 58.1437Z" fill="#751C00"/>
<path d="M92.5096 58.1437H74.0635C73.927 58.1437 73.7919 58.1169 73.6658 58.0647C73.5398 58.0124 73.4252 57.9359 73.3287 57.8394C73.2323 57.7429 73.1557 57.6284 73.1035 57.5023C73.0513 57.3763 73.0244 57.2411 73.0244 57.1047V52.3359C73.0244 51.7617 73.4893 51.2969 74.0635 51.2969H92.515C93.0893 51.2969 93.5541 51.7617 93.5541 52.3359V57.1047C93.5486 57.6789 93.0838 58.1437 92.5096 58.1437Z" fill="#751C00"/>
<path d="M96.4307 51.2915C96.1551 51.2915 95.8908 51.401 95.6959 51.5958C95.5011 51.7907 95.3916 52.055 95.3916 52.3306V57.0993C95.3916 57.6735 95.8564 58.1384 96.4307 58.1384H104.913V51.2915H96.4307Z" fill="#751C00"/>
<path d="M58.7836 9.03984H40.332C40.0565 9.03984 39.7922 8.93037 39.5973 8.73551C39.4024 8.54065 39.293 8.27636 39.293 8.00078V3.22656C39.293 2.65234 39.7578 2.1875 40.332 2.1875H58.7836C59.3578 2.1875 59.8227 2.65234 59.8227 3.22656V7.99531C59.8227 8.56953 59.3578 9.03984 58.7836 9.03984Z" fill="#E04E2C"/>
<path d="M81.326 9.03984H62.8799C62.6043 9.03984 62.34 8.93037 62.1452 8.73551C61.9503 8.54065 61.8408 8.27636 61.8408 8.00078V3.22656C61.8408 2.65234 62.3057 2.1875 62.8799 2.1875H81.3314C81.9057 2.1875 82.3705 2.65234 82.3705 3.22656V7.99531C82.3686 8.27176 82.258 8.53636 82.0625 8.73185C81.867 8.92734 81.6024 9.03798 81.326 9.03984Z" fill="#BF360C"/>
<path d="M103.873 9.03984H85.4219C85.1463 9.03984 84.882 8.93037 84.6871 8.73551C84.4923 8.54065 84.3828 8.27636 84.3828 8.00078V3.22656C84.3828 2.65234 84.8477 2.1875 85.4219 2.1875H103.873C104.448 2.1875 104.913 2.65234 104.913 3.22656V7.99531C104.913 8.56953 104.448 9.03984 103.873 9.03984Z" fill="#E04E2C"/>
<path d="M58.7836 28.3774H40.332C40.0565 28.3774 39.7922 28.2679 39.5973 28.0731C39.4024 27.8782 39.293 27.6139 39.293 27.3383V22.5696C39.293 21.9954 39.7578 21.5305 40.332 21.5305H58.7836C59.3578 21.5305 59.8227 21.9954 59.8227 22.5696V27.3383C59.8227 27.6139 59.7132 27.8782 59.5183 28.0731C59.3235 28.2679 59.0592 28.3774 58.7836 28.3774Z" fill="#E04E2C"/>
<path d="M81.326 28.3774H62.8799C62.6043 28.3774 62.34 28.2679 62.1452 28.0731C61.9503 27.8782 61.8408 27.6139 61.8408 27.3383V22.5696C61.8408 21.9954 62.3057 21.5305 62.8799 21.5305H81.3314C81.9057 21.5305 82.3705 21.9954 82.3705 22.5696V27.3383C82.365 27.9126 81.9002 28.3774 81.326 28.3774Z" fill="#E04E2C"/>
<path d="M103.873 28.3774H85.4219C85.1463 28.3774 84.882 28.2679 84.6871 28.0731C84.4923 27.8782 84.3828 27.6139 84.3828 27.3383V22.5696C84.3828 21.9954 84.8477 21.5305 85.4219 21.5305H103.873C104.448 21.5305 104.913 21.9954 104.913 22.5696V27.3383C104.913 27.6139 104.803 27.8782 104.608 28.0731C104.413 28.2679 104.149 28.3774 103.873 28.3774Z" fill="#BF360C"/>
<path d="M58.7836 47.7204H40.332C40.0565 47.7204 39.7922 47.6109 39.5973 47.4161C39.4024 47.2212 39.293 46.9569 39.293 46.6813V41.9126C39.293 41.3384 39.7578 40.8735 40.332 40.8735H58.7836C59.3578 40.8735 59.8227 41.3384 59.8227 41.9126V46.6813C59.8227 47.2501 59.3578 47.7204 58.7836 47.7204Z" fill="#E04E2C"/>
<path d="M81.326 47.7204H62.8799C62.6043 47.7204 62.34 47.6109 62.1452 47.4161C61.9503 47.2212 61.8408 46.9569 61.8408 46.6813V41.9126C61.8408 41.3384 62.3057 40.8735 62.8799 40.8735H81.3314C81.9057 40.8735 82.3705 41.3384 82.3705 41.9126V46.6813C82.3676 46.957 82.2565 47.2204 82.0611 47.4148C81.8657 47.6092 81.6016 47.719 81.326 47.7204Z" fill="#BF360C"/>
<path d="M103.873 47.7204H85.4219C85.1463 47.7204 84.882 47.6109 84.6871 47.4161C84.4923 47.2212 84.3828 46.9569 84.3828 46.6813V41.9126C84.3828 41.3384 84.8477 40.8735 85.4219 40.8735H103.873C104.448 40.8735 104.913 41.3384 104.913 41.9126V46.6813C104.913 47.2501 104.448 47.7204 103.873 47.7204Z" fill="#E04E2C"/>
<path d="M58.7836 67.0578H40.332C40.1956 67.0578 40.0605 67.0309 39.9344 66.9787C39.8083 66.9265 39.6938 66.85 39.5973 66.7535C39.5008 66.657 39.4243 66.5424 39.3721 66.4164C39.3198 66.2903 39.293 66.1552 39.293 66.0188V61.25C39.293 60.6758 39.7578 60.2109 40.332 60.2109H58.7836C59.3578 60.2109 59.8227 60.6758 59.8227 61.25V66.0188C59.8227 66.1552 59.7958 66.2903 59.7436 66.4164C59.6913 66.5424 59.6148 66.657 59.5183 66.7535C59.4218 66.85 59.3073 66.9265 59.1812 66.9787C59.0552 67.0309 58.92 67.0578 58.7836 67.0578Z" fill="#E04E2C"/>
<path d="M81.3257 67.0578H62.8796C62.7432 67.0578 62.6081 67.0309 62.482 66.9787C62.3559 66.9265 62.2414 66.85 62.1449 66.7535C62.0484 66.657 61.9719 66.5424 61.9197 66.4164C61.8675 66.2903 61.8406 66.1552 61.8406 66.0188V61.25C61.8406 60.6758 62.3054 60.2109 62.8796 60.2109H81.3312C81.9054 60.2109 82.3703 60.6758 82.3703 61.25V66.0188C82.3648 66.593 81.9 67.0578 81.3257 67.0578Z" fill="#E04E2C"/>
<path d="M103.873 67.0578H85.4219C85.2854 67.0578 85.1503 67.0309 85.0242 66.9787C84.8982 66.9265 84.7836 66.85 84.6871 66.7535C84.5907 66.657 84.5141 66.5424 84.4619 66.4164C84.4097 66.2903 84.3828 66.1552 84.3828 66.0188V61.25C84.3828 60.6758 84.8477 60.2109 85.4219 60.2109H103.873C104.448 60.2109 104.913 60.6758 104.913 61.25V66.0188C104.913 66.1552 104.886 66.2903 104.833 66.4164C104.781 66.5424 104.705 66.657 104.608 66.7535C104.512 66.85 104.397 66.9265 104.271 66.9787C104.145 67.0309 104.01 67.0578 103.873 67.0578Z" fill="#BF360C"/>
<path d="M47.7751 11.8562H39.2876V18.7085H47.7751C48.0507 18.7085 48.315 18.5991 48.5098 18.4042C48.7047 18.2093 48.8142 17.9451 48.8142 17.6695V12.9007C48.8142 12.321 48.3493 11.8562 47.7751 11.8562Z" fill="#BF360C"/>
<path d="M70.1424 18.7084H51.6963C51.4207 18.7084 51.1564 18.599 50.9616 18.4041C50.7667 18.2093 50.6572 17.945 50.6572 17.6694V12.9006C50.6572 12.3264 51.1221 11.8616 51.6963 11.8616H70.1479C70.7221 11.8616 71.1869 12.3264 71.1869 12.9006V17.6694C71.1814 18.2436 70.7166 18.7084 70.1424 18.7084Z" fill="#E04E2C"/>
<path d="M92.5096 18.7084H74.0635C73.927 18.7084 73.7919 18.6816 73.6658 18.6294C73.5398 18.5771 73.4252 18.5006 73.3287 18.4041C73.2323 18.3076 73.1557 18.1931 73.1035 18.067C73.0513 17.941 73.0244 17.8058 73.0244 17.6694V12.9006C73.0244 12.3264 73.4893 11.8616 74.0635 11.8616H92.515C93.0893 11.8616 93.5541 12.3264 93.5541 12.9006V17.6694C93.5486 18.2436 93.0838 18.7084 92.5096 18.7084Z" fill="#FF7043"/>
<path d="M96.4307 11.8562C96.1551 11.8562 95.8908 11.9657 95.6959 12.1605C95.5011 12.3554 95.3916 12.6197 95.3916 12.8953V17.664C95.3916 18.2382 95.8564 18.7031 96.4307 18.7031H104.913V11.8562H96.4307Z" fill="#E04E2C"/>
<path d="M47.7751 31.1992H39.2876V38.0516H47.7751C47.9115 38.0516 48.0467 38.0247 48.1727 37.9725C48.2988 37.9203 48.4133 37.8437 48.5098 37.7472C48.6063 37.6507 48.6828 37.5362 48.7351 37.4101C48.7873 37.2841 48.8142 37.149 48.8142 37.0125V32.2437C48.8142 31.6641 48.3493 31.1992 47.7751 31.1992Z" fill="#E04E2C"/>
<path d="M70.1424 38.0461H51.6963C51.4207 38.0461 51.1564 37.9366 50.9616 37.7418C50.7667 37.5469 50.6572 37.2826 50.6572 37.007V32.2383C50.6572 31.6641 51.1221 31.1992 51.6963 31.1992H70.1479C70.7221 31.1992 71.1869 31.6641 71.1869 32.2383V37.007C71.1814 37.5812 70.7166 38.0461 70.1424 38.0461Z" fill="#FF7043"/>
<path d="M92.5096 38.0461H74.0635C73.927 38.0461 73.7919 38.0192 73.6658 37.967C73.5398 37.9148 73.4252 37.8382 73.3287 37.7418C73.2323 37.6453 73.1557 37.5307 73.1035 37.4047C73.0513 37.2786 73.0244 37.1435 73.0244 37.007V32.2383C73.0244 31.6641 73.4893 31.1992 74.0635 31.1992H92.515C93.0893 31.1992 93.5541 31.6641 93.5541 32.2383V37.007C93.5486 37.5812 93.0838 38.0461 92.5096 38.0461Z" fill="#E04E2C"/>
<path d="M96.4307 31.1992C96.1551 31.1992 95.8908 31.3087 95.6959 31.5036C95.5011 31.6984 95.3916 31.9627 95.3916 32.2383V37.007C95.3916 37.5812 95.8564 38.0461 96.4307 38.0461H104.913V31.1992H96.4307Z" fill="#E04E2C"/>
<path d="M47.7751 50.5366H39.2876V57.389H47.7751C47.9115 57.389 48.0467 57.3621 48.1727 57.3099C48.2988 57.2577 48.4133 57.1811 48.5098 57.0846C48.6063 56.9881 48.6828 56.8736 48.7351 56.7475C48.7873 56.6215 48.8142 56.4864 48.8142 56.3499V51.5812C48.8142 51.0015 48.3493 50.5366 47.7751 50.5366Z" fill="#BF360C"/>
<path d="M70.1424 57.3889H51.6963C51.5598 57.3889 51.4247 57.362 51.2987 57.3098C51.1726 57.2576 51.058 57.181 50.9616 57.0845C50.8651 56.988 50.7885 56.8735 50.7363 56.7474C50.6841 56.6214 50.6572 56.4863 50.6572 56.3498V51.5811C50.6572 51.0068 51.1221 50.542 51.6963 50.542H70.1479C70.7221 50.542 71.1869 51.0068 71.1869 51.5811V56.3498C71.1814 56.924 70.7166 57.3889 70.1424 57.3889Z" fill="#E04E2C"/>
<path d="M92.5096 57.3889H74.0635C73.927 57.3889 73.7919 57.362 73.6658 57.3098C73.5398 57.2576 73.4252 57.181 73.3287 57.0845C73.2323 56.988 73.1557 56.8735 73.1035 56.7474C73.0513 56.6214 73.0244 56.4863 73.0244 56.3498V51.5811C73.0244 51.0068 73.4893 50.542 74.0635 50.542H92.515C93.0893 50.542 93.5541 51.0068 93.5541 51.5811V56.3498C93.5486 56.924 93.0838 57.3889 92.5096 57.3889Z" fill="#E04E2C"/>
<path d="M96.4307 50.5366C96.1551 50.5366 95.8908 50.6461 95.6959 50.841C95.5011 51.0358 95.3916 51.3001 95.3916 51.5757V56.3444C95.3916 56.9186 95.8564 57.3835 96.4307 57.3835H104.913V50.5366H96.4307Z" fill="#FF7043"/>
<path d="M115.242 50.1886C117.239 51.0495 119.556 50.1285 120.417 48.1315C121.278 46.1345 120.357 43.8178 118.36 42.9569C116.363 42.0961 114.046 43.0171 113.185 45.014C112.324 47.011 113.245 49.3277 115.242 50.1886Z" fill="#CC3333"/>
<path d="M114.981 49.4684C116.695 50.2074 118.684 49.4168 119.423 47.7028C120.162 45.9887 119.371 44.0002 117.657 43.2613C115.943 42.5223 113.954 43.3129 113.216 45.0269C112.477 46.741 113.267 48.7295 114.981 49.4684Z" fill="#F44336"/>
<path opacity="0.2" d="M115.039 44.5267C115.634 44.1402 116.613 44.026 117.478 44.2562C117.702 44.317 117.883 44.3949 118.038 44.5331C118.132 44.6453 118.201 44.8178 118.058 44.8994C117.946 44.9939 117.782 44.9591 117.649 44.9373C116.805 44.8235 115.891 45.0369 115.209 45.4577C114.955 45.6338 114.411 46.1497 114.174 45.8691C113.964 45.5283 114.271 44.9818 115.039 44.5267Z" fill="white"/>
<path d="M123.251 18.0167C122.359 18.3466 121.655 18.9009 121.085 19.7269C120.748 20.2605 120.066 20.4314 119.494 20.1846L121.573 21.0808C122.146 21.3276 122.827 21.1567 123.164 20.6232C123.704 19.7842 124.438 19.2429 125.33 18.913C126.21 18.6133 127.149 18.5894 128.148 18.8415C127.843 18.6383 127.494 18.4523 127.133 18.2964C125.734 17.729 124.45 17.6401 123.251 18.0167Z" fill="#CC3333"/>
<path d="M137.9 20.0082C136.777 17.5586 134.596 15.6539 131.342 14.251C130.98 14.0952 130.649 13.9523 130.305 13.8395C132.982 15.1722 134.83 16.934 135.821 19.1119C136.945 21.5615 136.849 24.2714 135.576 27.2243C134.432 29.8759 132.08 31.9347 128.535 33.4437L124.335 35.0634L124.206 35.1149C122.89 35.7626 121.781 36.9279 120.833 38.6277C120.513 39.2044 119.793 39.4657 119.161 39.1929L121.24 40.0892C121.842 40.349 122.592 40.1007 122.913 39.524C123.83 37.8112 124.969 36.6589 126.285 36.0111L126.414 35.9597L130.614 34.34C134.189 32.844 136.512 30.7722 137.655 28.1206C138.897 25.1547 138.994 22.4448 137.9 20.0082Z" fill="#CC3333"/>
<path d="M120.82 38.6581C121.737 36.9452 122.877 35.793 124.193 35.1452L124.322 35.0938L128.522 33.4741C132.097 31.978 134.419 29.9062 135.563 27.2546C136.836 24.3017 136.932 21.5919 135.808 19.1422C134.817 16.9643 132.999 15.2155 130.292 13.8698C127.545 12.8644 124.982 12.7599 122.628 13.4959C120.433 14.1936 118.689 15.5858 117.444 17.7288C117.042 18.413 117.355 19.2624 118.078 19.5742L119.524 20.1977C120.097 20.4445 120.778 20.2736 121.115 19.7401C121.655 18.901 122.389 18.3597 123.281 18.0299C124.463 17.6102 125.777 17.712 127.163 18.3096C127.524 18.4654 127.873 18.6514 128.178 18.8546C128.536 18.9372 128.88 19.05 129.242 19.2058C130.688 19.8293 131.634 20.7017 132.037 21.84C132.439 22.9783 132.337 24.2921 131.688 25.7987C131.194 26.9438 130.395 27.8856 129.347 28.5771C128.639 29.0581 127.177 29.7142 124.918 30.5625C122.688 31.4237 120.993 32.3723 119.935 33.417C119.072 34.2597 118.242 35.4384 117.506 36.9793C117.178 37.6594 117.473 38.4657 118.166 38.7644L119.221 39.2191C119.75 39.483 120.5 39.2347 120.82 38.6581Z" fill="#F44336"/>
<path opacity="0.2" d="M122.384 14.6413C123.954 13.8174 126.302 13.7578 128.313 14.4816C128.808 14.6593 129.277 14.8972 129.578 15.277C129.814 15.5576 129.882 15.98 129.541 16.1904C129.257 16.3535 128.856 16.288 128.529 16.2184C126.535 15.7876 124.302 16.0758 122.53 16.9553C121.844 17.3028 120.441 18.4847 119.986 17.7168C119.54 16.8455 120.456 15.6325 122.384 14.6413Z" fill="white"/>
</svg>
